<svg width="824" height="1460" viewBox="0 0 824 1460" fill="none" xmlns="http://www.w3.org/2000/svg">
<g clip-path="url(#clip0_626_338)">
<mask id="mask0_626_338" style="mask-type:luminance" maskUnits="userSpaceOnUse" x="0" y="0" width="824" height="1460">
<path d="M824 0H0V1460H824V0Z" fill="white"/>
</mask>
<g mask="url(#mask0_626_338)">
<g opacity="0.5">
<path d="M259.488 926.189L152.174 818.83H2.5V968.567L109.815 1075.93H259.488V926.189Z" fill="#22263C"/>
<path d="M578.164 607.383L470.85 500.025H321.176V649.761L428.491 757.12H578.164V607.383Z" fill="#22263C"/>
<path d="M689.241 877.908L581.927 770.55H432.253V920.286L539.568 1027.64H689.241V877.908Z" fill="#22263C"/>
<path d="M259.488 926.189L152.174 818.83H2.5V968.567L109.815 1075.93H259.488V926.189Z" stroke="#22263C" stroke-width="5"/>
<path d="M578.164 607.383L470.85 500.025H321.176V649.761L428.491 757.12H578.164V607.383Z" stroke="#22263C" stroke-width="5"/>
<path d="M689.241 877.908L581.927 770.55H432.253V920.286L539.568 1027.64H689.241V877.908Z" stroke="#22263C" stroke-width="5"/>
</g>
<path opacity="0.5" d="M423.99 929.953L531.304 1037.31V1187.05H381.631L274.316 1079.69V929.953H423.99ZM535.067 1200.48L642.381 1307.84V1457.57H492.708L385.393 1350.21V1200.48H535.067ZM631.589 340.622L738.903 447.98V597.717H589.23L481.915 490.359V340.622H631.589ZM468.488 336.858V486.595H318.815L211.5 379.237V229.5H361.174L468.488 336.858Z" stroke="#22263C" stroke-width="5"/>
</g>
</g>
<defs>
<clipPath id="clip0_626_338">
<rect width="824" height="1460" fill="white"/>
</clipPath>
</defs>
</svg>
