<svg width="824" height="1460" viewBox="0 0 824 1460" fill="none" xmlns="http://www.w3.org/2000/svg">
<g clip-path="url(#clip0_409_533)">
<path opacity="0.5" d="M152.174 818.83L259.488 926.189V1075.93H109.815L2.5 968.567V818.83H152.174ZM470.85 500.025L578.164 607.383V757.12H428.491L321.176 649.761V500.025H470.85ZM581.927 770.55L689.241 877.908V1027.64H539.568L432.253 920.286V770.55H581.927ZM422.589 929.953L529.903 1037.31V1187.05H380.23L272.915 1079.69V929.953H422.589ZM533.666 1200.48L640.98 1307.84V1457.57H491.307L383.992 1350.21V1200.48H533.666ZM359.773 229.5L467.087 336.858V486.595H317.414L210.099 379.237V229.5H359.773ZM630.188 340.622L737.502 447.98V597.717H587.829L480.514 490.359V340.622H630.188Z" stroke="#22263C" stroke-width="5"/>
</g>
<defs>
<clipPath id="clip0_409_533">
<rect width="824" height="1460" fill="white"/>
</clipPath>
</defs>
</svg>
