<svg width="219" height="80" viewBox="0 0 219 80" fill="none" xmlns="http://www.w3.org/2000/svg">
<path d="M178.798 58.9623C177.407 58.9623 176.36 57.8169 176.36 55.7595C176.36 53.7022 177.418 52.5567 178.798 52.5567C180.178 52.5567 181.236 53.7022 181.236 55.7595C181.247 57.8169 180.19 58.9623 178.798 58.9623ZM178.798 51.1889C176.282 51.1889 174.513 52.9682 174.513 55.7595C174.513 58.5508 176.282 60.3302 178.798 60.3302C181.314 60.3302 183.084 58.5508 183.084 55.7595C183.084 52.9682 181.314 51.1889 178.798 51.1889ZM168.48 55.6372V56.7826H170.227C170.194 58.3062 169.281 58.9734 168.146 58.9734C166.643 58.9734 165.663 57.828 165.663 55.7706C165.663 53.7133 166.721 52.5678 168.101 52.5678C169.003 52.5678 169.782 53.0238 170.082 54.1915H171.774C171.429 52.123 169.871 51.1889 168.101 51.1889C165.585 51.1889 163.816 52.9682 163.816 55.7595C163.816 58.5508 165.53 60.3302 167.901 60.3302C168.903 60.3302 169.804 60.0077 170.372 59.2959L170.539 60.1967H171.752V55.6261H168.48V55.6372ZM156.792 58.84V56.2822H160.821V54.9143H156.792V52.6902H161.211V51.3112H155.078V60.2078H161.333V58.84H156.792ZM150.102 60.2078H151.816V51.3112H150.102V60.2078ZM147.842 60.2078L144.047 55.2035L147.586 51.3112H145.538L141.475 55.7595V51.3112H139.761V60.2078H141.475V58.017L142.867 56.4935L145.772 60.2078H147.842ZM132.047 53.6243C132.047 52.9682 132.66 52.5011 133.561 52.5011C134.441 52.5011 134.997 52.9348 135.164 53.7466H136.834C136.645 52.1341 135.442 51.1777 133.55 51.1777C131.702 51.1777 130.266 52.0674 130.266 53.7911C130.266 56.9606 135.108 56.0042 135.108 57.8836C135.108 58.5731 134.463 58.9512 133.483 58.9512C132.615 58.9512 131.825 58.6732 131.68 57.6278H130.01C130.2 59.4627 131.535 60.319 133.506 60.319C135.665 60.319 136.956 59.2737 136.956 57.6167C136.956 54.4028 132.047 55.4592 132.047 53.6243ZM125.502 51.3112V57.8613C125.502 58.5842 125.269 58.9623 124.768 58.9623C124.256 58.9623 124.033 58.5842 124.033 57.8947H122.408C122.408 59.5183 123.309 60.3302 124.779 60.3302C126.237 60.3302 127.239 59.5183 127.239 58.0504V51.3112H125.502ZM115.763 58.84V56.2822H119.792V54.9143H115.763V52.6902H120.182V51.3112H114.048V60.2078H120.304V58.84H115.763ZM109.073 60.2078H110.798V51.3112H109.084V60.2078H109.073ZM104.887 51.3112L103.218 58.3062L101.437 51.9006H99.9341L98.1531 58.3062L96.5837 51.3112H94.7136L97.1068 60.2078H99.0993L100.691 54.4361L102.283 60.2078H104.275L106.668 51.3112H104.887Z" fill="#003228"/>
<path d="M212.893 41.2803L214.084 37.8662L215.342 41.2803H212.893ZM216.655 44.8612H218.547L215.152 35.9645H213.082L209.832 44.8612H211.635L212.403 42.6481H215.842L216.655 44.8612ZM206.882 35.9645L205.201 42.9595L203.398 36.5539H201.884L200.081 42.9595L198.489 35.9645H196.597L199.012 44.8612H201.027L202.63 39.0895L204.233 44.8612H206.247L208.663 35.9645H206.882ZM194.983 35.9645H187.514V37.3324H190.374V44.8612H192.111V37.3324H194.972V35.9645H194.983ZM180.624 38.2776C180.624 37.6215 181.236 37.1544 182.149 37.1544C183.039 37.1544 183.596 37.5881 183.763 38.4H185.443C185.254 36.7874 184.041 35.8311 182.126 35.8311C180.267 35.8311 178.809 36.7207 178.809 38.4444C178.809 41.6139 183.707 40.6575 183.707 42.5369C183.707 43.2264 183.05 43.6045 182.06 43.6045C181.191 43.6045 180.39 43.3265 180.234 42.2811H178.553C178.742 44.1161 180.1 44.9724 182.082 44.9724C184.264 44.9724 185.566 43.927 185.566 42.27C185.588 39.0561 180.624 40.1126 180.624 38.2776ZM170.773 40.057V37.3324H171.986C173.221 37.3324 173.912 37.755 173.912 38.6891C173.912 39.6344 173.221 40.0458 171.986 40.0458H170.773V40.057ZM174.791 41.992C174.524 41.4915 174.234 41.1579 173.878 40.9244C174.891 40.5685 175.648 39.8457 175.648 38.6446C175.648 36.7652 174.09 35.9645 172.331 35.9645H169.025V44.8612H170.761V41.4248H171.363C172.264 41.4248 172.609 41.6028 173.043 42.3701L174.468 44.8612H176.416L174.791 41.992ZM160.576 41.2803L161.767 37.8662L163.025 41.2803H160.576ZM164.339 44.8612H166.231L162.836 35.9645H160.766L157.515 44.8612H159.319L160.087 42.6481H163.526L164.339 44.8612ZM151.171 43.5378H149.724V37.2879H151.171C152.696 37.2879 153.898 38.3555 153.898 40.4128C153.898 42.4702 152.696 43.5378 151.171 43.5378ZM151.293 35.9645H147.976V44.8612H151.293C153.842 44.8612 155.757 43.2042 155.757 40.4128C155.757 37.6215 153.842 35.9645 151.293 35.9645ZM140.552 43.6156C139.149 43.6156 138.08 42.4702 138.08 40.4128C138.08 38.3555 139.149 37.21 140.552 37.21C141.954 37.21 143.023 38.3555 143.023 40.4128C143.023 42.4702 141.954 43.6156 140.552 43.6156ZM140.552 35.8422C138.003 35.8422 136.222 37.6215 136.222 40.4128C136.222 43.2042 138.003 44.9835 140.552 44.9835C143.101 44.9835 144.882 43.2042 144.882 40.4128C144.882 37.6215 143.089 35.8422 140.552 35.8422ZM130.389 40.2571H129.053V37.3324H130.389C131.624 37.3324 132.315 37.7883 132.315 38.7892C132.315 39.8012 131.624 40.2571 130.389 40.2571ZM130.745 35.9645H127.317V44.8612H129.053V41.6361H130.745C132.504 41.6361 134.062 40.8021 134.062 38.8003C134.062 36.7986 132.504 35.9645 130.745 35.9645ZM119.302 38.2776C119.302 37.6215 119.914 37.1544 120.827 37.1544C121.718 37.1544 122.274 37.5881 122.441 38.4H124.122C123.933 36.7874 122.72 35.8311 120.805 35.8311C118.946 35.8311 117.488 36.7207 117.488 38.4444C117.488 41.6139 122.386 40.6575 122.386 42.5369C122.386 43.2264 121.729 43.6045 120.738 43.6045C119.87 43.6045 119.068 43.3265 118.913 42.2811H117.232C117.421 44.1161 118.779 44.9724 120.76 44.9724C122.942 44.9724 124.244 43.927 124.244 42.27C124.267 39.0561 119.302 40.1126 119.302 38.2776ZM110.331 43.6156C108.928 43.6156 107.859 42.4702 107.859 40.4128C107.859 38.3555 108.928 37.21 110.331 37.21C111.733 37.21 112.802 38.3555 112.802 40.4128C112.802 42.4702 111.722 43.6156 110.331 43.6156ZM110.331 35.8422C107.782 35.8422 106.001 37.6215 106.001 40.4128C106.001 43.2042 107.782 44.9835 110.331 44.9835C112.88 44.9835 114.661 43.2042 114.661 40.4128C114.661 37.6215 112.868 35.8422 110.331 35.8422ZM99.8562 40.2905V41.4359H101.615C101.581 42.9595 100.669 43.6267 99.5111 43.6267C97.9973 43.6267 97.0066 42.4813 97.0066 40.424C97.0066 38.3666 98.0752 37.2212 99.4777 37.2212C100.39 37.2212 101.17 37.6771 101.481 38.8448H103.196C102.85 36.7763 101.27 35.8422 99.4777 35.8422C96.9287 35.8422 95.1477 37.6215 95.1477 40.4128C95.1477 43.2042 96.8842 44.9835 99.2774 44.9835C100.29 44.9835 101.203 44.661 101.771 43.9492L101.938 44.85H103.162V40.2794H99.8562V40.2905Z" fill="#003228"/>
<path d="M213.027 25.9341L214.195 22.52L215.431 25.9341H213.027ZM216.7 29.515H218.548L215.231 20.6183H213.205L210.032 29.515H211.791L212.548 27.3019H215.91L216.7 29.515ZM206.103 20.6183V26.479L201.105 20.6183H199.814V29.515H201.506V23.6543L206.504 29.515H207.795V20.6183H206.103ZM195.818 20.6183L194.17 27.6133L192.412 21.2077H190.942L189.184 27.6133L187.625 20.6183H185.778L188.137 29.515H190.108L191.677 23.7433L193.247 29.515H195.217L197.577 20.6183H195.818ZM179.822 28.2694C178.453 28.2694 177.407 27.124 177.407 25.0667C177.407 23.0093 178.453 21.8639 179.822 21.8639C181.192 21.8639 182.238 23.0093 182.238 25.0667C182.238 27.124 181.192 28.2694 179.822 28.2694ZM179.822 20.496C177.34 20.496 175.593 22.2753 175.593 25.0667C175.593 27.858 177.34 29.6373 179.822 29.6373C182.305 29.6373 184.052 27.858 184.052 25.0667C184.052 22.2753 182.316 20.496 179.822 20.496ZM179.099 19.8176H180.301L182.416 18.0605H180.557L179.099 19.8176ZM169.381 28.1471V25.8229L172.209 24.2104V22.709L169.381 24.3216V20.6183H167.69V25.2779L166.521 25.9563V27.4576L167.69 26.7793V29.515H173.689V28.1471H169.381ZM161.089 24.9443V26.0898H162.814C162.781 27.6133 161.89 28.2806 160.755 28.2806C159.274 28.2806 158.306 27.1351 158.306 25.0778C158.306 23.0204 159.352 21.875 160.721 21.875C161.612 21.875 162.38 22.3309 162.681 23.4986H164.35C164.016 21.4302 162.469 20.496 160.721 20.496C158.239 20.496 156.492 22.2753 156.492 25.0667C156.492 27.858 158.184 29.6373 160.521 29.6373C161.512 29.6373 162.402 29.3148 162.959 28.6031L163.126 29.5039H164.317V24.9332H161.089V24.9443ZM144.904 25.9341L146.073 22.52L147.308 25.9341H144.904ZM148.589 29.515H150.436L147.119 20.6183H145.093L141.921 29.515H143.68L144.437 27.3019H147.798L148.589 29.515ZM136.088 28.1471V25.8229L138.916 24.2104V22.709L136.088 24.3216V20.6183H134.396V25.2779L133.228 25.9563V27.4576L134.396 26.7793V29.515H140.396V28.1471H136.088ZM127.217 28.2694C125.848 28.2694 124.801 27.124 124.801 25.0667C124.801 23.0093 125.848 21.8639 127.217 21.8639C128.586 21.8639 129.632 23.0093 129.632 25.0667C129.621 27.124 128.586 28.2694 127.217 28.2694ZM127.217 20.496C124.735 20.496 122.987 22.2753 122.987 25.0667C122.987 27.858 124.735 29.6373 127.217 29.6373C129.699 29.6373 131.447 27.858 131.447 25.0667C131.447 22.2753 129.699 20.496 127.217 20.496ZM121.651 29.515L117.911 24.5106L121.406 20.6183H119.38L115.373 25.0667V20.6183H113.681V29.515H115.373V27.3242L116.742 25.8006L119.603 29.515H121.651ZM106.446 28.1471L111.188 21.5858V20.6183H104.309V21.9862H108.806L104.064 28.5475V29.515H111.322V28.1471H106.446ZM97.185 22.9315C97.185 22.2753 97.7861 21.8083 98.6766 21.8083C99.5448 21.8083 100.09 22.242 100.257 23.0538H101.905C101.715 21.4413 100.535 20.4849 98.6654 20.4849C96.8399 20.4849 95.4263 21.3745 95.4263 23.0983C95.4263 26.2677 100.213 25.3113 100.213 27.1907C100.213 27.8802 99.5671 28.2583 98.6098 28.2583C97.7527 28.2583 96.9735 27.9803 96.8288 26.9349H95.1814C95.3706 28.7699 96.6841 29.6262 98.632 29.6262C100.769 29.6262 102.038 28.5808 102.038 26.9238C102.027 23.7099 97.185 24.7664 97.185 22.9315Z" fill="#003228"/>
<path d="M4.71863 41.7253C2.29204 42.248 0.488798 43.4602 0.70029 44.4388C0.177127 42.0144 1.73548 39.6235 4.16207 39.1119C6.58866 38.5892 8.3919 37.3771 8.18041 36.3984C8.70357 38.8117 7.15634 41.2026 4.71863 41.7253Z" fill="#003228"/>
<path d="M4.16208 41.7253C6.58867 42.248 8.39191 43.4602 8.18042 44.4388C8.70358 42.0144 7.14522 39.6235 4.71864 39.1119C2.29205 38.5892 0.488807 37.3771 0.700299 36.3984C0.177136 38.8117 1.72436 41.2026 4.16208 41.7253Z" fill="#003228"/>
<path d="M75.7353 41.7253C78.1619 42.248 79.9651 43.4602 79.7537 44.4388C80.2768 42.0144 78.7185 39.6235 76.2919 39.1119C73.8653 38.5892 72.062 37.3771 72.2735 36.3984C71.7504 38.8117 73.2976 41.2026 75.7353 41.7253Z" fill="#003228"/>
<path d="M76.2914 41.7253C73.8648 42.248 72.0616 43.4602 72.273 44.4388C71.7499 42.0144 73.3082 39.6235 75.7348 39.1119C78.1614 38.5892 79.9646 37.3771 79.7532 36.3984C80.2763 38.8117 78.7291 41.2026 76.2914 41.7253Z" fill="#003228"/>
<path d="M12.1879 60.4973C13.9243 61.9541 14.8482 63.7001 14.2694 64.4007C15.7276 62.6658 15.505 60.0858 13.7685 58.629C12.0321 57.1722 11.1082 55.4262 11.687 54.7256C10.2288 56.4493 10.4514 59.0405 12.1879 60.4973Z" fill="#003228"/>
<path d="M68.2661 60.4973C66.5296 61.9541 65.6057 63.7001 66.1845 64.4007C64.7264 62.6658 64.949 60.0858 66.6854 58.629C68.4219 57.1722 69.3458 55.4262 68.767 54.7256C70.2251 56.4493 70.0025 59.0405 68.2661 60.4973Z" fill="#003228"/>
<path d="M18.9441 69.2268C16.9961 68.2815 14.7254 67.7477 12.5659 67.9034C14.358 66.6913 16.0277 65.2456 16.9738 63.3105C17.1297 65.4569 17.7419 67.4364 18.9441 69.2268Z" fill="#003228"/>
<path d="M19.9012 69.916C18.3317 71.6175 15.5156 71.5397 13.8125 69.9716C15.382 68.2701 18.3651 68.2701 19.9012 69.916Z" fill="#003228"/>
<path d="M19.9012 69.9164C21.1034 68.1371 20.814 65.7239 19.033 64.5117C17.8308 66.291 18.098 69.7274 19.9012 69.9164Z" fill="#003228"/>
<path d="M8.03562 56.2152C5.88731 56.8824 3.39394 55.4256 2.72607 53.2793C4.87438 52.612 7.36775 54.0577 8.03562 56.2152Z" fill="#003228"/>
<path d="M8.0357 56.2149C9.97252 55.2808 10.7628 52.9676 9.83894 51.0215C7.891 51.9556 6.66657 55.3697 8.0357 56.2149Z" fill="#003228"/>
<path d="M8.54766 45.6617C8.42522 47.2854 6.97817 48.4531 5.35303 48.3196C5.4866 46.696 6.92252 45.5283 8.54766 45.6617Z" fill="#003228"/>
<path d="M5.43094 48.285C5.29736 50.031 3.81692 51.2543 2.06934 51.1208C2.20291 49.3637 3.68335 48.1405 5.43094 48.285Z" fill="#003228"/>
<path d="M9.40496 49.542C7.95792 50.2871 6.17694 49.7199 5.43115 48.2853C6.88933 47.5402 8.65918 48.1074 9.40496 49.542Z" fill="#003228"/>
<path d="M5.43109 48.2745C3.87273 49.0752 1.95818 48.4747 1.15674 46.9178C2.7151 46.1171 4.62965 46.7176 5.43109 48.2745Z" fill="#003228"/>
<path d="M4.56285 43.9932C5.84293 44.8939 6.32156 46.8067 5.40881 48.2302C3.9729 47.3294 3.63896 45.4277 4.56285 43.9932Z" fill="#003228"/>
<path d="M5.39793 48.2412C6.82272 49.1531 7.22344 50.9881 6.422 52.3559C6.43313 52.3448 6.43313 52.3559 6.422 52.3559C5.08626 51.8332 4.49631 49.6536 5.39793 48.2412Z" fill="#003228"/>
<path d="M6.00981 29.7922C3.73906 28.1797 3.24929 25.0548 4.8633 22.7861C7.12292 24.3987 7.31215 27.6793 6.00981 29.7922Z" fill="#003228"/>
<path d="M5.99854 29.7919C8.77019 30.0811 11.3081 28.1127 11.5975 25.3436C8.82584 25.0545 6.28794 27.0228 5.99854 29.7919Z" fill="#003228"/>
<path d="M9.08198 22.5752C7.24535 20.4845 7.49023 17.3261 9.58288 15.4912C11.4195 17.593 10.8407 20.8181 9.08198 22.5752Z" fill="#003228"/>
<path d="M9.07031 22.5637C11.6973 23.4867 14.6247 22.1522 15.5375 19.5277C12.9217 18.6158 9.9942 19.9392 9.07031 22.5637Z" fill="#003228"/>
<path d="M13.5791 16.4696C12.1766 14.0675 13.0226 11.0092 15.4269 9.61914C16.8183 12.0324 15.6272 15.0906 13.5791 16.4696Z" fill="#003228"/>
<path d="M13.5679 16.4687C15.9722 17.8699 19.1 17.1248 20.5026 14.7227C18.0982 13.3215 14.9704 14.0666 13.5679 16.4687Z" fill="#003228"/>
<path d="M2.75932 29.292C1.40132 30.6265 1.44585 32.7506 2.7148 34.1851C3.61642 35.1971 4.66274 35.7421 4.57369 36.7652L4.78518 35.6197C4.91876 34.7746 5.11912 33.7181 4.1841 32.7394C2.88176 31.3493 2.08032 29.9592 2.75932 29.292Z" fill="#003228"/>
<path d="M8.98176 30.9268C9.52718 32.5949 8.67009 34.3965 7.11173 35.0303C6.10993 35.4307 4.72967 35.7198 4.58496 36.7763C4.58496 36.7763 4.58496 36.5984 4.61835 36.2203C4.80758 34.1963 4.99681 33.6625 6.36594 33.1176C8.08014 32.4281 8.97063 32.0722 8.98176 30.9268Z" fill="#003228"/>
<path d="M19.0776 11.4767C19.6898 8.85219 22.4058 7.32864 25.0328 7.94028C24.4206 10.5648 21.6935 12.0883 19.0776 11.4767Z" fill="#003228"/>
<path d="M4.56257 36.5423C4.56257 36.5423 4.58483 36.2309 4.62935 36.053C4.7184 35.7305 5.00781 35.2189 5.0746 34.7963C6.58843 25.2992 11.898 16.8029 19.879 11.2313L19.5562 10.7754C11.4527 16.4359 6.05414 25.0656 4.52917 34.7185C4.46239 35.1411 4.32881 35.5414 4.54031 36.1642C4.59596 36.3421 4.56257 36.5423 4.56257 36.5423Z" fill="#003228"/>
<path d="M11.1192 66.2132C12.2319 66.2132 13.134 65.312 13.134 64.2004C13.134 63.0887 12.2319 62.1875 11.1192 62.1875C10.0065 62.1875 9.10449 63.0887 9.10449 64.2004C9.10449 65.312 10.0065 66.2132 11.1192 66.2132Z" fill="#003228"/>
<path d="M4.82959 58.1612C7.14486 57.2826 9.73842 58.4615 10.6066 60.7746C8.29137 61.642 5.70895 60.4743 4.82959 58.1612Z" fill="#003228"/>
<path d="M61.5098 69.2268C63.4577 68.2815 65.7285 67.7477 67.8879 67.9034C66.0958 66.6913 64.4261 65.2456 63.48 63.3105C63.3241 65.4569 62.7119 67.4364 61.5098 69.2268Z" fill="#003228"/>
<path d="M60.5522 69.916C62.1217 71.6175 64.9379 71.5397 66.641 69.9716C65.0715 68.2701 62.0883 68.2701 60.5522 69.916Z" fill="#003228"/>
<path d="M60.5524 69.9164C59.3502 68.1371 59.6396 65.7239 61.4206 64.5117C62.6228 66.291 62.3556 69.7274 60.5524 69.9164Z" fill="#003228"/>
<path d="M72.418 56.2152C74.5663 56.8824 77.0597 55.4256 77.7275 53.2793C75.5792 52.612 73.0858 54.0577 72.418 56.2152Z" fill="#003228"/>
<path d="M72.4181 56.2149C70.4813 55.2808 69.691 52.9676 70.6149 51.0215C72.5628 51.9556 73.7872 55.3697 72.4181 56.2149Z" fill="#003228"/>
<path d="M71.9058 45.6617C72.0282 47.2854 73.4753 48.4531 75.1004 48.3196C74.9668 46.696 73.5309 45.5283 71.9058 45.6617Z" fill="#003228"/>
<path d="M75.0229 48.285C75.1565 50.031 76.637 51.2543 78.3845 51.1208C78.251 49.3637 76.7705 48.1405 75.0229 48.285Z" fill="#003228"/>
<path d="M71.0488 49.542C72.4959 50.2871 74.2768 49.7199 75.0226 48.2853C73.5645 47.5402 71.7946 48.1074 71.0488 49.542Z" fill="#003228"/>
<path d="M75.0229 48.2745C76.5813 49.0752 78.4959 48.4747 79.2973 46.9178C77.7389 46.1171 75.8244 46.7176 75.0229 48.2745Z" fill="#003228"/>
<path d="M75.8907 43.9932C74.6106 44.8939 74.1319 46.8067 75.0447 48.2302C76.4806 47.3294 76.8145 45.4277 75.8907 43.9932Z" fill="#003228"/>
<path d="M75.0562 48.2412C73.6314 49.1531 73.2306 50.9881 74.0321 52.3559C74.021 52.3448 74.021 52.3559 74.0321 52.3559C75.3678 51.8332 75.9578 49.6536 75.0562 48.2412Z" fill="#003228"/>
<path d="M74.4437 29.7922C76.7145 28.1797 77.2042 25.0548 75.5902 22.7861C73.3306 24.3987 73.1414 27.6793 74.4437 29.7922Z" fill="#003228"/>
<path d="M74.4549 29.7919C71.6833 30.0811 69.1454 28.1127 68.856 25.3436C71.6276 25.0545 74.1655 27.0228 74.4549 29.7919Z" fill="#003228"/>
<path d="M71.3718 22.5752C73.2084 20.4845 72.9635 17.3261 70.8709 15.4912C69.0342 17.593 69.613 20.8181 71.3718 22.5752Z" fill="#003228"/>
<path d="M71.3832 22.5637C68.7563 23.4867 65.8288 22.1522 64.916 19.5277C67.5318 18.6158 70.4593 19.9392 71.3832 22.5637Z" fill="#003228"/>
<path d="M66.8746 16.4696C68.2772 14.0675 67.4312 11.0092 65.0269 9.61914C63.6355 12.0324 64.8265 15.0906 66.8746 16.4696Z" fill="#003228"/>
<path d="M66.8859 16.4687C64.4815 17.8699 61.3537 17.1248 59.9512 14.7227C62.3555 13.3215 65.4833 14.0666 66.8859 16.4687Z" fill="#003228"/>
<path d="M77.6945 29.292C79.0525 30.6265 79.008 32.7617 77.7391 34.1851C76.8374 35.1971 75.7911 35.7421 75.8802 36.7652L75.6687 35.6197C75.5351 34.7746 75.3347 33.7181 76.2698 32.7394C77.5721 31.3493 78.3735 29.9592 77.6945 29.292Z" fill="#003228"/>
<path d="M71.4723 30.9268C70.9268 32.5949 71.7839 34.3965 73.3423 35.0303C74.3441 35.4307 75.7244 35.7198 75.8691 36.7763C75.8691 36.7763 75.8691 36.5984 75.8357 36.2203C75.6464 34.1963 75.4572 33.6625 74.0881 33.1176C72.3739 32.4281 71.4834 32.0722 71.4723 30.9268Z" fill="#003228"/>
<path d="M61.376 11.4767C60.7638 8.85219 58.0478 7.32864 55.4209 7.94028C56.0331 10.5648 58.7602 12.0883 61.376 11.4767Z" fill="#003228"/>
<path d="M75.8911 36.5423C75.8911 36.5423 75.8689 36.2309 75.8243 36.053C75.7353 35.7305 75.4459 35.2189 75.3791 34.7963C73.8653 25.2992 68.5557 16.8029 60.5747 11.2313L60.8975 10.7754C69.001 16.4359 74.3996 25.0656 75.9245 34.7185C75.9913 35.1411 76.1249 35.5414 75.9134 36.1642C75.8577 36.3421 75.8911 36.5423 75.8911 36.5423Z" fill="#003228"/>
<path d="M69.3346 66.2132C70.4473 66.2132 71.3493 65.312 71.3493 64.2004C71.3493 63.0887 70.4473 62.1875 69.3346 62.1875C68.2218 62.1875 67.3198 63.0887 67.3198 64.2004C67.3198 65.312 68.2218 66.2132 69.3346 66.2132Z" fill="#003228"/>
<path d="M75.6237 58.1612C73.3085 57.2826 70.7149 58.4615 69.8467 60.7746C72.162 61.642 74.7444 60.4743 75.6237 58.1612Z" fill="#003228"/>
<path d="M42.7648 16.5259C41.9522 15.7141 41.9522 14.4018 42.7648 13.59C41.6628 13.8903 40.5163 13.2342 40.2269 12.1221C39.9263 13.223 38.7909 13.8792 37.689 13.59C38.5015 14.4018 38.5015 15.7141 37.689 16.5259C38.7909 16.2256 39.9375 16.8818 40.2269 17.9939C40.5274 16.8818 41.6628 16.2256 42.7648 16.5259Z" fill="#003228"/>
<path d="M68.1437 41.8814C67.3311 41.0696 67.3311 39.7573 68.1437 38.9455C67.0417 39.2457 65.8952 38.5896 65.6058 37.4775C65.3052 38.5785 64.1699 39.2346 63.0679 38.9455C63.8804 39.7573 63.8804 41.0696 63.0679 41.8814C64.1699 41.5811 65.3164 42.2372 65.6058 43.3493C65.9063 42.2372 67.0417 41.5811 68.1437 41.8814Z" fill="#003228"/>
<path d="M17.3859 41.8814C16.5733 41.0696 16.5733 39.7573 17.3859 38.9455C16.2839 39.2457 15.1374 38.5896 14.848 37.4775C14.5474 38.5785 13.412 39.2346 12.3101 38.9455C13.1226 39.7573 13.1226 41.0696 12.3101 41.8814C13.412 41.5811 14.5585 42.2372 14.848 43.3493C15.1485 42.2372 16.2839 41.5811 17.3859 41.8814Z" fill="#003228"/>
<path d="M38.6687 53.0459C38.6687 53.0459 34.5836 52.7456 34.873 58.5284C34.873 58.5284 30.5764 59.1178 29.9865 59.8073C29.0848 60.7971 28.2723 58.951 29.2518 58.3616C30.2647 57.7611 32.0123 57.1717 32.747 56.927C32.0123 55.5814 30.3983 53.335 31.389 51.0441C32.6245 48.2083 36.565 49.009 38.0677 50.5548L38.6687 53.0459Z" fill="#003228"/>
<path d="M41.7856 53.08C41.7856 53.08 45.8708 52.7798 45.5814 58.5626C45.5814 58.5626 49.878 59.152 50.4679 59.8415C51.3695 60.8312 52.1821 58.9852 51.2026 58.3958C50.1896 57.7953 48.4421 57.2059 47.7074 56.9612C48.4421 55.6156 50.0561 53.3692 49.0654 51.0783C47.8298 48.2425 43.8894 49.0432 42.3867 50.589L41.7856 53.08Z" fill="#003228"/>
<path d="M36.7653 40.102C35.4629 37.6332 33.3146 36.8881 33.3146 36.8881C33.3146 36.8881 35.5186 35.0865 34.5168 32.6844C32.4798 27.8246 26.5024 26.4345 23.9756 19.1504C22.3393 21.2189 23.1964 23.3874 24.7214 25.6338C23.7196 24.9221 22.6732 24.5662 21.5713 24.7108C21.46 26.3789 22.5063 27.1574 23.1185 28.2806C22.1612 28.047 21.2151 27.8246 20.2467 28.8033C20.358 29.5261 21.1705 30.9273 22.4284 31.4389C21.6937 31.45 20.9368 31.7058 20.1465 32.6844C20.8366 33.5963 21.5935 34.2524 22.484 34.4749C21.9163 34.7751 21.3375 34.9197 20.8255 36.0429C21.3598 36.7769 22.0722 37.1661 22.9627 37.3774C22.6065 37.8445 22.139 38.0669 22.0944 39.3124C23.3634 40.1354 24.0646 39.9018 24.6769 39.9018C24.3986 40.6024 24.3095 41.4254 24.6101 42.5263C25.4338 42.5263 26.3354 42.6709 26.9253 42.2594C26.6137 43.0045 27.0033 43.6607 27.2148 44.339C28.1386 44.3835 28.9289 44.3501 29.4076 43.8497C29.2406 44.4836 29.7304 45.2064 30.209 45.8737C31.0216 45.7291 31.9232 45.6958 32.2905 45.0174C32.4353 45.718 33.1476 46.1184 33.8378 46.5298C34.617 46.3296 35.3405 45.9404 35.552 45.3399C35.8191 45.9293 36.3757 46.4186 37.3107 46.7745C37.7003 49.1543 38.2457 51.9568 38.5351 53.5804C38.6464 57.1947 37.0547 62.1879 35.2626 63.7115C35.2626 63.7115 36.5426 65.7132 40.227 65.7466H40.2382H40.2493C43.9337 65.7021 45.2138 63.7115 45.2138 63.7115C43.4217 62.1879 41.8411 57.1836 41.9412 53.5804C42.2195 51.9568 42.7761 49.1543 43.1657 46.7745C44.1007 46.4186 44.6572 45.9293 44.9244 45.3399C45.1359 45.9404 45.8594 46.3408 46.6386 46.5298C47.3287 46.1184 48.0411 45.7069 48.1858 45.0174C48.5531 45.6958 49.4547 45.7402 50.2673 45.8737C50.746 45.1953 51.2357 44.4836 51.0688 43.8497C51.5363 44.3501 52.3377 44.3946 53.2616 44.339C53.4731 43.6607 53.8627 43.0156 53.551 42.2594C54.141 42.6709 55.0426 42.5263 55.8663 42.5263C56.1668 41.4254 56.0778 40.5913 55.7995 39.9018C56.4117 39.8907 57.113 40.1242 58.3819 39.3124C58.3374 38.0669 57.881 37.8445 57.5137 37.3774C58.4042 37.1661 59.1166 36.7769 59.6509 36.0429C59.1388 34.9197 58.56 34.7751 57.9923 34.4749C58.8828 34.2524 59.6397 33.5963 60.3299 32.6844C59.5395 31.7058 58.7938 31.45 58.048 31.4389C59.2947 30.9273 60.1184 29.515 60.2297 28.8033C59.2613 27.8246 58.304 28.047 57.3578 28.2806C57.9589 27.1574 59.0164 26.3678 58.9051 24.7108C57.8031 24.5662 56.7568 24.9221 55.755 25.6338C57.2799 23.3985 58.1259 21.2189 56.5008 19.1504C53.974 26.4345 47.9854 27.8135 45.9596 32.6844C44.9578 35.0976 47.1617 36.8881 47.1617 36.8881C47.1617 36.8881 45.0023 37.6332 43.7111 40.102C43.7111 37.7666 42.6314 34.3192 42.4867 33.1404C42.4087 32.5065 42.4644 31.7391 42.5757 31.0163C42.943 28.7143 44.5682 27.3464 44.6238 27.3019C44.5904 27.3242 44.0339 27.6133 43.0543 27.3909C42.9542 27.3687 42.854 27.3353 42.7538 27.2908C42.0637 27.0128 41.3513 26.4012 40.0601 26.5791C39.5035 26.6569 39.0583 26.9238 38.7689 27.2908C38.7577 27.3019 38.7577 27.3019 38.7466 27.3131C38.268 26.9906 37.7671 26.9016 37.2773 26.9906C36.4647 27.1351 36.064 27.7468 36.064 28.3028C36.064 28.3807 36.064 28.3807 36.064 28.3807C37.2662 28.2695 38.0453 28.5252 38.6019 29.1925C37.9563 28.9589 37.2439 28.8255 36.1976 29.059C35.3516 29.2481 34.5279 28.8255 34.5279 28.8255C34.5279 28.8255 34.8062 29.8486 36.064 29.7819C37.5222 29.7152 38.2568 30.071 38.6687 30.5159C37.8338 30.3268 36.9322 30.1822 36.576 30.8495C37.422 30.8828 38.9692 31.8948 38.8023 33.107C38.6242 34.3192 36.7653 38.0446 36.7653 40.102Z" fill="#003228"/>
<path d="M25.7789 59.0296C24.5434 59.5857 24.3096 60.3864 24.7104 61.2538C25.0777 60.1528 26.1574 59.7858 26.8809 59.7191C25.6454 60.4753 25.6454 61.3761 26.0684 62.0879C27.3039 60.1417 29.8641 59.7191 30.6655 60.7311L30.6544 60.7422C30.8659 60.3419 30.8993 59.9193 30.7434 59.5523C30.1757 58.2845 27.9495 58.051 25.7789 59.0296Z" fill="#003228"/>
<path d="M54.6753 59.0296C55.9108 59.5857 56.1446 60.3864 55.7439 61.2538C55.3766 60.1528 54.2968 59.7858 53.5733 59.7191C54.8089 60.4753 54.8089 61.3761 54.3859 62.0879C53.1503 60.1417 50.5902 59.7191 49.7887 60.7311L49.7999 60.7422C49.5884 60.3419 49.555 59.9193 49.7108 59.5523C50.2785 58.2845 52.5047 58.051 54.6753 59.0296Z" fill="#003228"/>
<path fill-rule="evenodd" clip-rule="evenodd" d="M42.2083 25.1783C42.5645 24.8002 43.3771 24.4554 43.6665 24.3776C44.39 24.1885 45.2249 24.422 45.3918 25.1338C45.5477 25.8455 44.98 26.4683 44.2119 26.5906C43.5107 26.7018 42.7426 26.2125 41.9746 25.9678C41.1954 25.7232 40.2938 25.6898 39.7818 25.2005C39.2252 24.6667 39.1139 23.8215 39.6482 23.3322C40.1825 22.8429 41.0062 23.132 41.4848 23.6992C41.674 23.9105 42.1304 24.6667 42.2083 25.1783Z" fill="#003228"/>
<path d="M42.5868 25.8233L41.5293 25.4897L42.7871 22.0645L43.5218 22.298L42.5868 25.8233Z" fill="#003228"/>
<path d="M43.0983 20.5967L44.1001 20.9192L43.5213 22.2982L42.7866 22.0646L43.0983 20.5967Z" fill="#003228"/>
<path d="M41.707 22.143L41.9742 21.2979L43.2543 21.8428L43.0762 22.4322L41.707 22.143Z" fill="#003228"/>
<path d="M44.6234 22.1319L44.3563 22.9771L43.0762 22.4322L43.2543 21.8428L44.6234 22.1319Z" fill="#003228"/>
<path d="M61.5095 47.9756C62.2553 51.5009 60.0068 54.9595 56.4783 55.7046C55.7325 52.1793 57.9921 48.7207 61.5095 47.9756Z" fill="#003228"/>
<path d="M59.7398 56.9609C61.2314 56.2047 62.3111 54.9703 62.8899 53.5357C61.3872 53.1576 59.7509 53.291 58.2594 54.0473C57.5915 54.392 57.0015 54.8257 56.5006 55.3373C56.7678 54.6811 56.9236 53.9583 56.9681 53.2132C57.0572 51.5451 56.5118 49.9993 55.5545 48.7871C54.4748 49.8992 53.7846 51.3894 53.7067 53.0464C53.6177 54.7145 54.1631 56.2603 55.1092 57.4725C56.6119 57.8506 58.2482 57.7171 59.7398 56.9609Z" fill="#003228"/>
<path d="M25.222 57.429C23.5412 55.4718 20.6026 55.2493 18.6436 56.9175C20.3244 58.8747 23.263 59.1083 25.222 57.429Z" fill="#003228"/>
<path d="M25.2216 57.4291C24.32 55.0158 25.5333 52.3357 27.9487 51.4238C28.8504 53.837 27.6371 56.5283 25.2216 57.4291Z" fill="#003228"/>
<path d="M17.564 52.8586C20.4135 53.6815 23.0627 55.2607 25.2222 57.4293C24.3428 54.5045 24.2204 51.424 24.8549 48.5215C22.8735 50.6233 20.3579 52.1246 17.564 52.8586Z" fill="#003228"/>
<path d="M21.8715 51.8461C22.8622 51.2456 23.1627 49.9556 22.5617 48.9658C21.9606 47.9761 20.6694 47.6758 19.6787 48.2764C18.688 48.8769 18.3875 50.1669 18.9886 51.1566C19.5896 52.1464 20.8809 52.4578 21.8715 51.8461Z" fill="#003228"/>
<path d="M49.388 8.88583C50.0113 8.88583 50.4566 7.59582 50.4566 6.86184C50.4566 6.43925 50.3007 6.10563 49.989 6.10563C49.3657 6.10563 48.9427 7.38452 48.9427 8.15186C48.9427 8.61893 49.1097 8.88583 49.388 8.88583ZM49.9445 9.8311C48.5086 9.8311 46.9614 8.90807 46.9614 6.95081C46.9614 4.80449 48.9093 2.58033 51.5363 2.58033C51.9926 2.58033 52.5937 2.64706 53.2059 2.80275L52.9833 3.60345C52.7273 3.55896 52.4824 3.5256 52.2487 3.5256C50.9352 3.5256 49.7887 4.24845 49.2099 5.82761L49.2433 5.84985C49.6217 5.48286 50.0447 5.34941 50.4677 5.34941C51.5363 5.34941 52.5269 6.21684 52.5269 7.50685C52.5158 8.67453 51.4806 9.8311 49.9445 9.8311ZM41.1621 8.19634C41.2066 7.87384 41.2288 7.57357 41.2511 7.23995C41.6184 7.29555 41.9969 7.32892 42.3753 7.36228L42.8317 2.01317C42.4644 2.07989 42.0192 2.11326 41.6518 2.15774C41.6964 1.87972 41.7409 1.57946 41.752 1.29032C42.4644 1.25695 44.0673 1.03454 44.9466 0.867725L45.0913 0.889967L44.5237 7.54021C44.891 7.57357 45.2694 7.60694 45.6368 7.61806C45.6034 7.95168 45.5589 8.27419 45.5589 8.60781C44.1007 8.35203 42.5423 8.24082 41.1621 8.19634ZM37.0881 7.65142C37.511 7.65142 37.7782 7.26219 37.7782 6.70615C37.7782 5.90545 37.2328 5.62743 36.487 5.31605C36.3757 5.68304 36.3423 5.97218 36.3423 6.2502C36.3423 6.92857 36.4981 7.65142 37.0881 7.65142ZM37.0324 3.81474C37.166 3.60344 37.166 3.40327 37.166 3.13637C37.166 2.55809 36.9879 1.67954 36.4981 1.67954C36.2198 1.67954 36.0417 1.93532 36.0417 2.38016C36.0306 3.0474 36.4202 3.51448 37.0324 3.81474ZM36.91 8.63005C36.7541 8.64117 36.654 8.65229 36.4425 8.65229C35.1512 8.65229 34.2051 7.97392 34.2051 6.97305C34.2051 5.97218 35.1401 5.37165 35.9972 5.10475C35.0845 4.68216 34.1828 3.98155 34.1828 2.98068C34.1828 1.77963 35.474 0.823242 36.9211 0.823242C38.2346 0.823242 39.0138 1.62394 39.0138 2.43576C39.0138 3.26982 38.2012 3.88147 37.5778 4.08164C38.78 4.54871 39.9154 4.92682 39.9154 6.15011C39.9154 7.49573 38.4795 8.4966 36.91 8.63005ZM29.185 10.1647C29.107 9.84222 29.0069 9.53084 28.9067 9.21945C29.2629 9.13049 29.6302 9.01928 29.9864 8.90807L28.4503 3.90371C28.1275 4.09276 27.8047 4.24845 27.493 4.42639C27.4262 4.14836 27.3483 3.85922 27.2593 3.59232C27.916 3.29206 29.2406 2.53585 29.9975 2.04653L30.1311 2.01317L32.0568 8.29643C32.413 8.19634 32.9473 8.02953 33.1254 7.9628C33.2033 8.28531 33.2701 8.51884 33.4148 8.90807C32.0011 9.23057 30.5096 9.63092 29.185 10.1647Z" fill="#003228"/>
<path d="M46.9614 72.53C46.7833 72.53 46.5162 72.5634 46.3492 72.5634L46.2379 71.9406C47.2731 71.7849 48.9317 71.3401 49.6997 71.1065C49.722 71.2066 49.7999 71.4958 49.8667 71.6626C49.6218 71.8294 49.4993 71.9517 49.2322 72.1296L52.6049 76.9783L52.6494 76.9561L52.438 71.9183L51.8591 71.1955C51.681 71.1955 51.4139 71.2289 51.2358 71.2289C51.2135 71.0398 51.169 70.8174 51.1245 70.6617C52.271 70.2502 53.3062 69.8054 54.4304 69.2494C54.4638 69.4384 54.5306 69.6719 54.5974 69.8388C54.3636 70.0056 54.2301 70.1168 53.974 70.3058L57.2577 74.832L57.2911 74.8209L56.8793 68.8601C56.5787 68.849 56.2003 68.9713 55.9999 69.0492C55.9665 68.8935 55.9331 68.6599 55.8886 68.4931C56.601 68.1261 57.8922 67.3032 58.0592 67.2031C58.0814 67.3366 58.1594 67.5701 58.2261 67.748C58.0258 67.9149 57.8922 68.0372 57.7364 68.293L58.1482 75.6105C57.4804 75.9997 56.8125 76.3222 56.1112 76.5557L53.373 73.0638L53.5065 77.7457C52.8832 78.0348 52.0038 78.2461 51.3026 78.4908L46.9614 72.53ZM45.1693 78.8577C44.4235 79.6584 43.355 80.0032 42.2307 80.0032C39.9266 80.0032 38.4573 78.4908 38.4573 76.0998C38.4573 73.2973 40.6167 72.1852 43.7223 72.1852C44.1787 72.1852 44.6684 72.2075 45.0358 72.2853V74.554L44.4458 74.6096C44.1898 73.4419 43.5553 72.9859 42.6871 72.9859C41.318 72.9859 40.8393 74.0647 40.8393 75.566C40.8393 77.2341 41.407 79.1358 42.676 79.1135C43.4329 79.1024 43.7891 78.4463 43.7891 77.1451C43.7891 76.9672 43.7779 76.7781 43.7668 76.5668C43.4551 76.5224 43.021 76.4779 42.8207 76.4445C42.8429 76.2332 42.8541 75.9663 42.8541 75.755L45.7815 75.5104L46.1155 79.5917C45.9151 79.5806 45.737 79.6028 45.5478 79.6473L45.1693 78.8577ZM33.2479 79.3026C31.0662 79.3026 29.263 77.9347 29.263 75.5326C29.263 73.4419 30.6321 71.5958 33.0921 71.5958C34.2386 71.5958 35.9082 72.0184 36.8433 72.4633L36.1865 74.6541L35.6188 74.5317C35.719 73.3863 35.0623 72.4188 33.938 72.4188C32.4019 72.4188 31.6116 74.3872 31.6116 76.4556C31.6116 77.6456 32.068 78.4018 32.8806 78.4018C33.6597 78.4018 34.105 77.7123 34.4167 76.2332C34.1273 76.0998 33.7154 75.933 33.5373 75.8551C33.6152 75.6549 33.7043 75.4103 33.7711 75.199L36.6429 75.7662L35.8415 79.7808C35.6634 79.714 35.463 79.6807 35.2738 79.6696L35.1402 78.8244C34.5391 79.1691 33.9269 79.3026 33.2479 79.3026ZM24.9997 76.5335C23.575 76.5335 21.3599 75.6549 20.7031 74.465C21.0816 73.82 21.4266 73.1639 21.7383 72.4855C21.9387 72.5856 22.139 72.6746 22.3394 72.7635C22.217 73.1194 22.1613 73.4308 22.1613 73.6866C22.1613 74.6763 22.9961 75.5549 23.831 75.5549C24.3653 75.5549 24.5879 75.2101 24.5879 74.7653C24.5879 73.6421 22.9739 71.974 22.9739 70.6951C22.9739 69.6608 23.8198 68.9157 25.0443 68.9157C26.2909 68.9157 28.2389 69.7164 28.8734 70.9508C28.5172 71.4179 28.1721 71.8961 27.8604 72.3854C27.6935 72.2853 27.5154 72.2075 27.3261 72.1408C27.4263 71.8294 27.482 71.5625 27.482 71.3401C27.482 70.5505 26.7807 69.9277 26.1017 69.9277C25.5897 69.9277 25.3559 70.2836 25.3559 70.6839C25.3559 71.6626 27.1258 73.6421 27.1258 74.9321C27.1258 75.933 26.1796 76.5335 24.9997 76.5335Z" fill="#003228"/>
</svg>
