<svg width="848" height="240" viewBox="0 0 848 240" fill="none" xmlns="http://www.w3.org/2000/svg">
<g opacity="0.5">
<path d="M558.056 240L727.762 240L847.762 120L678.056 120L558.056 240Z" fill="#22263C"/>
<path d="M218.645 240L388.35 240L508.35 120L338.645 120L218.645 240Z" fill="#22263C"/>
<path d="M-120.766 240L48.9392 240L168.939 120L-0.766363 120L-120.766 240Z" fill="#22263C"/>
<path d="M-460.178 240L-290.472 240L-170.472 120L-340.178 120L-460.178 240Z" fill="#22263C"/>
<path d="M-799.589 240L-629.883 240L-509.883 120L-679.589 120L-799.589 240Z" fill="#22263C"/>
<path d="M-1139 240L-969.295 240L-849.295 120L-1019 120L-1139 240Z" fill="#22263C"/>
<path d="M558.056 -5.24537e-06L727.762 -5.24537e-06L847.762 120L678.056 120L558.056 -5.24537e-06Z" fill="#22263C"/>
<path d="M218.645 -5.24537e-06L388.35 -5.24537e-06L508.35 120L338.645 120L218.645 -5.24537e-06Z" fill="#22263C"/>
<path d="M-120.766 -5.24537e-06L48.9392 -5.24537e-06L168.939 120L-0.766363 120L-120.766 -5.24537e-06Z" fill="#22263C"/>
<path d="M-460.178 -5.24536e-06L-290.472 -5.24537e-06L-170.472 120L-340.178 120L-460.178 -5.24536e-06Z" fill="#22263C"/>
<path d="M-799.589 -5.24537e-06L-629.883 -5.24537e-06L-509.883 120L-679.589 120L-799.589 -5.24537e-06Z" fill="#22263C"/>
<path d="M-1139 -5.24537e-06L-969.295 -5.24537e-06L-849.295 120L-1019 120L-1139 -5.24537e-06Z" fill="#22263C"/>
</g>
</svg>
