<svg width="1018" height="240" viewBox="0 0 1018 240" fill="none" xmlns="http://www.w3.org/2000/svg">
<g opacity="0.5">
<path d="M289.706 1.87135e-05L120 1.66898e-05L1.43099e-06 120L169.706 120L289.706 1.87135e-05Z" fill="#22263C"/>
<path d="M629.117 3.80197e-05L459.411 3.5996e-05L339.411 120L509.117 120L629.117 3.80197e-05Z" fill="#22263C"/>
<path d="M968.528 5.73259e-05L798.823 5.53022e-05L678.823 120L848.528 120L968.528 5.73259e-05Z" fill="#22263C"/>
<path d="M1307.94 7.66322e-05L1138.23 7.46085e-05L1018.23 120L1187.94 120L1307.94 7.66322e-05Z" fill="#22263C"/>
<path d="M1647.35 9.59384e-05L1477.64 9.39147e-05L1357.65 120L1527.35 120L1647.35 9.59384e-05Z" fill="#22263C"/>
<path d="M1986.76 0.000115245L1817.06 0.000113221L1697.06 120L1866.76 120L1986.76 0.000115245Z" fill="#22263C"/>
<path d="M289.706 240L120 240L1.43099e-06 120L169.706 120L289.706 240Z" fill="#22263C"/>
<path d="M629.117 240L459.411 240L339.411 120L509.117 120L629.117 240Z" fill="#22263C"/>
<path d="M968.528 240L798.823 240L678.823 120L848.528 120L968.528 240Z" fill="#22263C"/>
<path d="M1307.94 240L1138.23 240L1018.23 120L1187.94 120L1307.94 240Z" fill="#22263C"/>
<path d="M1647.35 240L1477.64 240L1357.65 120L1527.35 120L1647.35 240Z" fill="#22263C"/>
<path d="M1986.76 240L1817.06 240L1697.06 120L1866.76 120L1986.76 240Z" fill="#22263C"/>
</g>
</svg>
