<svg width="50" height="36" viewBox="0 0 50 36" fill="none" xmlns="http://www.w3.org/2000/svg">
<path fill-rule="evenodd" clip-rule="evenodd" d="M34.5157 0.603516C45.3362 0.605579 48.5112 12.6597 49.2848 18.0524H49.2868C51.1229 30.8348 48.6865 35.4952 44.707 35.39C42.3047 35.3268 39.8066 32.106 37.7613 29.4691C36.3342 27.6291 35.1276 26.0734 34.328 26.0734H15.631C14.8267 26.0734 13.6167 27.6337 12.187 29.4772C10.1433 32.1126 7.65062 35.3268 5.25205 35.39C1.27044 35.4952 -1.16391 30.8348 0.672165 18.0524C1.44579 12.6577 4.61871 0.603516 15.4412 0.603516C17.6521 0.603516 19.2754 1.50847 21.0745 2.67735C21.311 2.83103 21.5864 2.91409 21.8684 2.91409H28.089C28.3708 2.91409 28.6458 2.83125 28.8821 2.6779C30.6814 1.5104 32.3047 0.603516 34.5157 0.603516ZM9.46873 13.848C9.46873 14.8051 10.2446 15.581 11.2017 15.581H13.5122V17.8915C13.5122 18.8486 14.2881 19.6245 15.2451 19.6245C16.2022 19.6245 16.9781 18.8486 16.9781 17.8915V15.581H19.2886C20.2457 15.581 21.0216 14.8051 21.0216 13.848C21.0216 12.891 20.2457 12.1151 19.2886 12.1151H16.9781V9.80453C16.9781 8.84747 16.2022 8.07161 15.2451 8.07161C14.2881 8.07161 13.5122 8.84747 13.5122 9.80453V12.1151H11.2017C10.2446 12.1151 9.46873 12.891 9.46873 13.848ZM30.8002 15.581C29.8432 15.581 29.0673 14.8051 29.0673 13.848C29.0673 12.891 29.8432 12.1151 30.8002 12.1151C31.7573 12.1151 32.5332 12.891 32.5332 13.848C32.5332 14.8051 31.7573 15.581 30.8002 15.581ZM33.1108 9.80453C33.1108 10.7616 33.8867 11.5375 34.8437 11.5375C35.8008 11.5375 36.5767 10.7616 36.5767 9.80453C36.5767 8.84747 35.8008 8.07161 34.8437 8.07161C33.8867 8.07161 33.1108 8.84747 33.1108 9.80453ZM38.8872 15.581C37.9302 15.581 37.1543 14.8051 37.1543 13.848C37.1543 12.891 37.9302 12.1151 38.8872 12.1151C39.8443 12.1151 40.6202 12.891 40.6202 13.848C40.6202 14.8051 39.8443 15.581 38.8872 15.581ZM33.1108 17.8915C33.1108 18.8486 33.8867 19.6245 34.8437 19.6245C35.8008 19.6245 36.5767 18.8486 36.5767 17.8915C36.5767 16.9345 35.8008 16.1586 34.8437 16.1586C33.8867 16.1586 33.1108 16.9345 33.1108 17.8915Z" fill="#26B9DB"/>
</svg>
