<svg width="96" height="36" viewBox="0 0 96 36" fill="none" xmlns="http://www.w3.org/2000/svg">
<path d="M17.3161 28.8159L1.90269 21.067C0.736171 20.4806 0 19.2865 0 17.9809C0 16.6732 0.738467 15.4776 1.90779 14.8922L17.3161 7.17773V12.5515L7.2068 17.6409C6.94385 17.7733 6.94384 18.1487 7.2068 18.2811L17.3161 23.3705V28.8159Z" fill="white"/>
<path fill-rule="evenodd" clip-rule="evenodd" d="M57.5157 0.603516C68.3362 0.605579 71.5112 12.6597 72.2848 18.0524H72.2869C74.1229 30.8348 71.6865 35.4952 67.707 35.39C65.3047 35.3268 62.8066 32.106 60.7613 29.4691C59.3342 27.6291 58.1276 26.0734 57.328 26.0734H38.631C37.8267 26.0734 36.6167 27.6337 35.187 29.4772C33.1433 32.1126 30.6506 35.3268 28.252 35.39C24.2704 35.4952 21.8361 30.8348 23.6722 18.0524C24.4458 12.6577 27.6187 0.603516 38.4412 0.603516C40.6521 0.603516 42.2754 1.50847 44.0745 2.67735C44.311 2.83103 44.5864 2.91409 44.8684 2.91409H51.089C51.3708 2.91409 51.6458 2.83125 51.8821 2.6779C53.6814 1.5104 55.3047 0.603516 57.5157 0.603516ZM32.4687 13.848C32.4687 14.8051 33.2446 15.581 34.2017 15.581H36.5122V17.8915C36.5122 18.8486 37.2881 19.6245 38.2451 19.6245C39.2022 19.6245 39.9781 18.8486 39.9781 17.8915V15.581H42.2886C43.2457 15.581 44.0216 14.8051 44.0216 13.848C44.0216 12.891 43.2457 12.1151 42.2886 12.1151H39.9781V9.80454C39.9781 8.84747 39.2022 8.07161 38.2451 8.07161C37.2881 8.07161 36.5122 8.84747 36.5122 9.80453V12.1151H34.2017C33.2446 12.1151 32.4687 12.891 32.4687 13.848ZM53.8002 15.581C52.8432 15.581 52.0673 14.8051 52.0673 13.848C52.0673 12.891 52.8432 12.1151 53.8002 12.1151C54.7573 12.1151 55.5332 12.891 55.5332 13.848C55.5332 14.8051 54.7573 15.581 53.8002 15.581ZM56.1108 9.80454C56.1108 10.7616 56.8867 11.5375 57.8437 11.5375C58.8008 11.5375 59.5767 10.7616 59.5767 9.80454C59.5767 8.84747 58.8008 8.07161 57.8437 8.07161C56.8867 8.07161 56.1108 8.84747 56.1108 9.80454ZM61.8872 15.581C60.9302 15.581 60.1543 14.8051 60.1543 13.848C60.1543 12.891 60.9302 12.1151 61.8872 12.1151C62.8443 12.1151 63.6202 12.891 63.6202 13.848C63.6202 14.8051 62.8443 15.581 61.8872 15.581ZM56.1108 17.8915C56.1108 18.8486 56.8867 19.6245 57.8437 19.6245C58.8008 19.6245 59.5767 18.8486 59.5767 17.8915C59.5767 16.9345 58.8008 16.1586 57.8437 16.1586C56.8867 16.1586 56.1108 16.9345 56.1108 17.8915Z" fill="#26B9DB"/>
<path d="M78.6426 28.8159V23.3705L88.7497 18.2821C89.0131 18.1496 89.0126 17.7734 88.7489 17.6415L78.6426 12.5873V7.17773L94.0913 14.894C95.261 15.4782 96 16.6734 96 17.9809C96 19.2863 95.2633 20.48 94.0964 21.0652L78.6426 28.8159Z" fill="white"/>
</svg>
