<svg width="35" height="26" viewBox="0 0 35 26" fill="none" xmlns="http://www.w3.org/2000/svg">
    <path d="M33.75 0.916016H1.25C0.558594 0.916016 0 1.47461 0 2.16602V23.8327C0 24.5241 0.558594 25.0827 1.25 25.0827H33.75C34.4414 25.0827 35 24.5241 35 23.8327V2.16602C35 1.47461 34.4414 0.916016 33.75 0.916016ZM31.4688 4.29492L18.2695 14.7598C17.9648 14.998 17.5391 14.998 17.2344 14.7598L4.03125 4.29492C3.98478 4.25906 3.95069 4.20955 3.93377 4.15334C3.91685 4.09713 3.91794 4.03703 3.93689 3.98147C3.95584 3.92591 3.9917 3.87767 4.03944 3.84352C4.08719 3.80937 4.14442 3.79101 4.20312 3.79102H31.2969C31.3556 3.79101 31.4128 3.80937 31.4606 3.84352C31.5083 3.87767 31.5442 3.92591 31.5631 3.98147C31.5821 4.03703 31.5832 4.09713 31.5662 4.15334C31.5493 4.20955 31.5152 4.25906 31.4688 4.29492Z" fill="white"/>
</svg>
