<svg width="483" height="295" viewBox="0 0 483 295" fill="none" xmlns="http://www.w3.org/2000/svg">
    <mask id="mask0_289_1505" style="mask-type:alpha" maskUnits="userSpaceOnUse" x="0" y="0" width="483" height="295">
        <path d="M0 0H456.163L483 26.8345V295H26.3211L0 268.682V0Z" fill="#FFD200"/>
    </mask>
    <g mask="url(#mask0_289_1505)">
        <rect opacity="0.1" width="483" height="295" fill="#26B9DB"/>
        <rect x="5" y="5" width="473" height="285" stroke="#000314" stroke-width="10"/>
        <rect x="-59.8076" y="209.412" width="34.6481" height="213.437" transform="rotate(-45 -59.8076 209.412)" fill="#26B9DB"/>
        <rect x="372" y="-36.6348" width="34" height="213.437" transform="rotate(-45 372 -36.6348)" fill="#26B9DB"/>
        <path d="M215.88 118.28C227.203 117.107 237.763 116.52 247.56 116.52C253.309 116.52 257.533 117.869 260.232 120.568C262.931 123.267 264.28 127.491 264.28 133.24V137.2C264.28 141.6 263.4 144.944 261.64 147.232C259.88 149.579 256.8 151.515 252.4 153.04L243.6 156.12V160.52H227.76V148.2L248.44 140.72V133.24C248.44 131.891 248.029 130.835 247.208 130.072C246.445 129.251 245.096 128.84 243.16 128.84C239.64 128.84 235.064 129.016 229.432 129.368C223.859 129.72 219.341 129.984 215.88 130.16V118.28ZM227.76 165.8H243.6V179H227.76V165.8Z" fill="#26B9DB"/>
    </g>
</svg>
