<svg width="50" height="63" viewBox="0 0 50 63" fill="none" xmlns="http://www.w3.org/2000/svg">
    <path d="M0.88 2.27999C12.2027 1.10666 22.7627 0.519997 32.56 0.519997C38.3093 0.519997 42.5333 1.86933 45.232 4.568C47.9307 7.26666 49.28 11.4907 49.28 17.24V21.2C49.28 25.6 48.4 28.944 46.64 31.232C44.88 33.5787 41.8 35.5147 37.4 37.04L28.6 40.12V44.52H12.76V32.2L33.44 24.72V17.24C33.44 15.8907 33.0293 14.8347 32.208 14.072C31.4453 13.2507 30.096 12.84 28.16 12.84C24.64 12.84 20.064 13.016 14.432 13.368C8.85867 13.72 4.34133 13.984 0.88 14.16V2.27999ZM12.76 49.8H28.6V63H12.76V49.8Z" fill="#26B9DB"/>
</svg>
