<svg width="338" height="345" viewBox="0 0 338 345" fill="none" xmlns="http://www.w3.org/2000/svg">
<path opacity="0.5" d="M92.8026 170.775L132.273 237.51L106.14 252.729L121.947 279.437L95.7992 294.653L68.1515 247.936L15.8379 278.377L0.0423633 251.688L52.3597 221.232L24.7083 174.531L50.8559 159.316L66.655 185.99L92.7878 170.771L92.8026 170.775ZM70.8274 0.14895L123.408 14.581L255.41 237.644L281.572 222.433L297.368 249.123L251.615 275.759L283.203 329.152L257.055 344.368L225.453 290.97L179.685 317.601L163.89 290.912L190.041 275.682L57.9465 52.4827L70.8274 0.14895ZM285.244 58.8072L337.781 73.2271L324.914 125.438L249.97 169.035L210.467 102.307L285.244 58.8072Z" fill="#22263C"/>
</svg>
