<svg width="64" height="64" viewBox="0 0 64 64" fill="none" xmlns="http://www.w3.org/2000/svg">
<path d="M0 16C0 7.16344 7.16344 0 16 0H48C56.8366 0 64 7.16344 64 16V48C64 56.8366 56.8366 64 48 64H16C7.16344 64 0 56.8366 0 48V16Z" fill="#000314"/>
<path d="M17.5665 30.6608L36.9183 12.4921C38.16 11.3262 40.1752 12.385 39.9197 14.0689L38.0883 26.1395C38.0385 26.4677 38.2204 26.7873 38.5281 26.9121L46.6751 30.2149C47.8879 30.7066 48.183 32.2894 47.229 33.1851L27.8772 51.3538C26.6354 52.5197 24.6203 51.4609 24.8758 49.777L26.7072 37.7064C26.757 37.3782 26.5751 37.0586 26.2674 36.9338L18.1204 33.631C16.9076 33.1393 16.6125 31.5565 17.5665 30.6608Z" fill="#FFD200"/>
</svg>
