<svg width="76" height="40" viewBox="0 0 76 40" fill="none" xmlns="http://www.w3.org/2000/svg">
<path d="M17.3358 30.8308L1.90486 23.0731C0.737011 22.486 0 21.2906 0 19.9834C0 18.6742 0.739309 17.4773 1.90997 16.8912L17.3358 9.16797V14.5478L7.21502 19.6431C6.95176 19.7756 6.95176 20.1514 7.21501 20.284L17.3358 25.3792V30.8308Z" fill="white"/>
<path d="M23.1485 18.737L42.5004 0.568224C43.7421 -0.597584 45.7572 0.461141 45.5017 2.1451L43.6703 14.2156C43.6205 14.5439 43.8024 14.8635 44.1101 14.9882L52.2572 18.2911C53.4699 18.7827 53.7651 20.3656 52.811 21.2613L33.4592 39.43C32.2175 40.5958 30.2023 39.5371 30.4578 37.8531L32.2892 25.7826C32.339 25.4543 32.1571 25.1348 31.8494 25.01L23.7024 21.7072C22.4896 21.2155 22.1945 19.6327 23.1485 18.737Z" fill="#FFD200"/>
<path d="M58.623 30.8308V25.3792L68.7417 20.285C69.0054 20.1523 69.0049 19.7757 68.7409 19.6437L58.623 14.5837V9.16797L74.0894 16.893C75.2604 17.4779 76.0002 18.6745 76.0002 19.9834C76.0002 21.2903 75.2627 22.4854 74.0945 23.0713L58.623 30.8308Z" fill="white"/>
</svg>
