<svg width="35" height="44" viewBox="0 0 35 44" fill="none" xmlns="http://www.w3.org/2000/svg">
<path d="M4.92949 25.7574L5.90952 23.4575L4.92949 25.7574L10.2003 28.0033L8.91929 36.8774C8.65846 38.6843 9.58173 40.2535 10.9476 41.0077C12.3322 41.7724 14.2198 41.708 15.5862 40.3596L31.2961 24.8564C33.2831 22.8956 32.7586 19.3881 30.0705 18.2426L24.7997 15.9967L26.0807 7.12256C26.3415 5.31565 25.4183 3.74653 24.0524 2.99227C22.6678 2.22761 20.7802 2.29203 19.4138 3.64042L20.7631 5.00774L19.4138 3.64042L3.70387 19.1436C1.71686 21.1044 2.24139 24.6119 4.92949 25.7574Z" fill="#FFD200" stroke="#000314" stroke-width="5"/>
</svg>
