<svg width="56" height="56" viewBox="0 0 56 56" fill="none" xmlns="http://www.w3.org/2000/svg">
<path d="M2.91065 28.9254C1.19614 29.2951 -0.0779491 30.1523 0.0714809 30.8444C-0.298162 29.1299 0.802902 27.439 2.51741 27.0772C4.23193 26.7076 5.50602 25.8503 5.35659 25.1582C5.72623 26.8649 4.63303 28.5558 2.91065 28.9254Z" fill="white"/>
<path d="M2.51777 28.9254C4.23228 29.2951 5.50637 30.1523 5.35694 30.8444C5.72658 29.1299 4.62552 27.439 2.911 27.0772C1.19649 26.7076 -0.0775975 25.8503 0.0718325 25.1582C-0.29781 26.8649 0.795388 28.5558 2.51777 28.9254Z" fill="white"/>
<path d="M53.09 28.9254C54.8045 29.2951 56.0786 30.1523 55.9292 30.8444C56.2988 29.1299 55.1978 27.439 53.4833 27.0772C51.7688 26.7076 50.4947 25.8503 50.6441 25.1582C50.2745 26.8649 51.3677 28.5558 53.09 28.9254Z" fill="white"/>
<path d="M53.4829 28.9254C51.7684 29.2951 50.4943 30.1523 50.6437 30.8444C50.2741 29.1299 51.3752 27.439 53.0897 27.0772C54.8042 26.7076 56.0783 25.8503 55.9288 25.1582C56.2985 26.8649 55.2053 28.5558 53.4829 28.9254Z" fill="white"/>
<path d="M8.19048 42.2009C9.41738 43.2312 10.0702 44.466 9.66119 44.9615C10.6915 43.7346 10.5342 41.9099 9.30728 40.8797C8.08038 39.8494 7.4276 38.6146 7.83657 38.1191C6.80629 39.3382 6.96358 41.1707 8.19048 42.2009Z" fill="white"/>
<path d="M47.8151 42.2029C46.5882 43.2332 45.9354 44.4679 46.3444 44.9634C45.3141 43.7365 45.4714 41.9119 46.6983 40.8816C47.9252 39.8513 48.578 38.6166 48.169 38.1211C49.1993 39.3401 49.042 41.1726 47.8151 42.2029Z" fill="white"/>
<path d="M12.9616 48.3754C11.5852 47.7069 9.98084 47.3294 8.45508 47.4395C9.7213 46.5823 10.901 45.5599 11.5695 44.1914C11.6796 45.7093 12.1122 47.1092 12.9616 48.3754Z" fill="white"/>
<path d="M13.6399 48.8623C12.531 50.0656 10.5412 50.0105 9.33789 48.9016C10.4468 47.6983 12.5546 47.6983 13.6399 48.8623Z" fill="white"/>
<path d="M13.6393 48.8633C14.4887 47.6049 14.2842 45.8983 13.0258 45.041C12.1765 46.2994 12.3652 48.7296 13.6393 48.8633Z" fill="white"/>
<path d="M5.25539 39.1728C3.73749 39.6447 1.97579 38.6144 1.50391 37.0965C3.0218 36.6246 4.7835 37.647 5.25539 39.1728Z" fill="white"/>
<path d="M5.25342 39.1728C6.62188 38.5122 7.18028 36.8763 6.52751 35.5C5.15118 36.1606 4.28606 38.5751 5.25342 39.1728Z" fill="white"/>
<path d="M5.61655 31.7085C5.53004 32.8568 4.50763 33.6826 3.35938 33.5882C3.45375 32.4399 4.4683 31.6141 5.61655 31.7085Z" fill="white"/>
<path d="M3.41617 33.5648C3.32179 34.7996 2.27578 35.6647 1.04102 35.5703C1.13539 34.3277 2.1814 33.4626 3.41617 33.5648Z" fill="white"/>
<path d="M6.22177 34.4529C5.19936 34.9799 3.941 34.5788 3.41406 33.5642C4.44434 33.0373 5.69484 33.4384 6.22177 34.4529Z" fill="white"/>
<path d="M3.41459 33.5577C2.31353 34.124 0.960793 33.6993 0.394531 32.5982C1.49559 32.032 2.84833 32.4567 3.41459 33.5577Z" fill="white"/>
<path d="M2.8008 30.5293C3.70524 31.1663 4.04343 32.5191 3.39852 33.5258C2.38397 32.8887 2.14803 31.5438 2.8008 30.5293Z" fill="white"/>
<path d="M3.39515 33.5332C4.40184 34.1781 4.68497 35.4758 4.11871 36.4432C4.12657 36.4353 4.12657 36.4432 4.11871 36.4432C3.17494 36.0735 2.75811 34.532 3.39515 33.5332Z" fill="white"/>
<path d="M3.82347 20.488C2.21906 19.3476 1.87302 17.1376 3.0134 15.5332C4.60995 16.6736 4.74365 18.9937 3.82347 20.488Z" fill="white"/>
<path d="M3.81641 20.4881C5.77473 20.6926 7.56789 19.3005 7.77237 17.3422C5.81405 17.1377 4.02089 18.5298 3.81641 20.4881Z" fill="white"/>
<path d="M5.99264 15.3829C4.69496 13.9043 4.86798 11.6707 6.34655 10.373C7.64423 11.8595 7.23527 14.1403 5.99264 15.3829Z" fill="white"/>
<path d="M5.98438 15.3758C7.84045 16.0286 9.90888 15.0848 10.5538 13.2287C8.70557 12.5838 6.63715 13.5197 5.98438 15.3758Z" fill="white"/>
<path d="M9.17292 11.0634C8.18196 9.36465 8.77968 7.20184 10.4785 6.21875C11.4616 7.9254 10.62 10.0882 9.17292 11.0634Z" fill="white"/>
<path d="M9.16406 11.0648C10.8628 12.0557 13.0728 11.5288 14.0638 9.83C12.365 8.83905 10.155 9.36598 9.16406 11.0648Z" fill="white"/>
<path d="M1.52621 20.1348C0.566714 21.0785 0.598173 22.5807 1.49475 23.5953C2.1318 24.3109 2.87108 24.6963 2.80816 25.4199L2.95759 24.6098C3.05197 24.0121 3.19354 23.2649 2.5329 22.5728C1.61272 21.5897 1.04646 20.6067 1.52621 20.1348Z" fill="white"/>
<path d="M5.92103 21.2891C6.3064 22.4688 5.70081 23.7429 4.59975 24.1912C3.89192 24.4743 2.91669 24.6788 2.81445 25.4259C2.81445 25.4259 2.81445 25.3001 2.83805 25.0327C2.97175 23.6013 3.10545 23.2238 4.07281 22.8384C5.28398 22.3508 5.91316 22.0991 5.92103 21.2891Z" fill="white"/>
<path d="M13.0566 7.53369C13.4892 5.67761 15.4082 4.60014 17.2643 5.0327C16.8317 6.88878 14.9049 7.96625 13.0566 7.53369Z" fill="white"/>
<path d="M2.80173 25.2597C2.80173 25.2597 2.81745 25.0395 2.84891 24.9137C2.91183 24.6856 3.11631 24.3238 3.1635 24.0249C4.23311 17.3085 7.98459 11.2998 13.6236 7.35956L13.3955 7.03711C7.67 11.0403 3.8556 17.1433 2.77813 23.9699C2.73094 24.2688 2.63657 24.5519 2.786 24.9923C2.82532 25.1181 2.80173 25.2597 2.80173 25.2597Z" fill="white"/>
<path d="M7.43133 46.2435C8.21752 46.2435 8.85485 45.6062 8.85485 44.82C8.85485 44.0338 8.21752 43.3965 7.43133 43.3965C6.64514 43.3965 6.00781 44.0338 6.00781 44.82C6.00781 45.6062 6.64514 46.2435 7.43133 46.2435Z" fill="white"/>
<path d="M2.99219 40.5496C4.62805 39.9283 6.46054 40.7619 7.07399 42.3978C5.43812 43.0113 3.6135 42.1855 2.99219 40.5496Z" fill="white"/>
<path d="M43.0371 48.3754C44.4134 47.7069 46.0178 47.3294 47.5436 47.4395C46.2774 46.5823 45.0977 45.5599 44.4292 44.1914C44.3191 45.7093 43.8865 47.1092 43.0371 48.3754Z" fill="white"/>
<path d="M42.3613 48.8603C43.4703 50.0636 45.46 50.0086 46.6633 48.8996C45.5544 47.6963 43.4467 47.6963 42.3613 48.8603Z" fill="white"/>
<path d="M42.3611 48.8613C41.5117 47.603 41.7162 45.8963 42.9745 45.0391C43.8239 46.2974 43.6352 48.7276 42.3611 48.8613Z" fill="white"/>
<path d="M50.748 39.1728C52.2659 39.6447 54.0276 38.6144 54.4995 37.0965C52.9816 36.6246 51.2199 37.647 50.748 39.1728Z" fill="white"/>
<path d="M50.7456 39.1728C49.3771 38.5122 48.8187 36.8763 49.4715 35.5C50.8478 36.1606 51.713 38.5751 50.7456 39.1728Z" fill="white"/>
<path d="M50.3789 31.7105C50.4654 32.8587 51.4878 33.6845 52.6361 33.5901C52.5417 32.4419 51.5272 31.6161 50.3789 31.7105Z" fill="white"/>
<path d="M52.582 33.5668C52.6764 34.8016 53.7224 35.6667 54.9572 35.5723C54.8628 34.3297 53.8168 33.4645 52.582 33.5668Z" fill="white"/>
<path d="M49.7754 34.4549C50.7978 34.9818 52.0562 34.5807 52.5831 33.5662C51.5528 33.0392 50.3023 33.4403 49.7754 34.4549Z" fill="white"/>
<path d="M52.582 33.5597C53.6831 34.1259 55.0358 33.7012 55.6021 32.6002C54.501 32.0339 53.1483 32.4586 52.582 33.5597Z" fill="white"/>
<path d="M53.1971 30.5312C52.2927 31.1683 51.9545 32.521 52.5994 33.5277C53.614 32.8907 53.8499 31.5458 53.1971 30.5312Z" fill="white"/>
<path d="M52.6072 33.5352C51.6005 34.1801 51.3174 35.4777 51.8837 36.4451C51.8758 36.4372 51.8758 36.4451 51.8837 36.4451C52.8274 36.0755 53.2443 34.534 52.6072 33.5352Z" fill="white"/>
<path d="M52.1758 20.488C53.7802 19.3476 54.1262 17.1376 52.9858 15.5332C51.3893 16.6736 51.2556 18.9937 52.1758 20.488Z" fill="white"/>
<path d="M52.1845 20.4881C50.2262 20.6926 48.433 19.3005 48.2285 17.3422C50.1868 17.1377 51.98 18.5298 52.1845 20.4881Z" fill="white"/>
<path d="M50.0081 15.3829C51.3058 13.9043 51.1328 11.6707 49.6542 10.373C48.3565 11.8595 48.7655 14.1403 50.0081 15.3829Z" fill="white"/>
<path d="M50.0147 15.3758C48.1587 16.0286 46.0902 15.0848 45.4453 13.2287C47.2935 12.5838 49.362 13.5197 50.0147 15.3758Z" fill="white"/>
<path d="M46.8302 11.0654C47.8212 9.3666 47.2234 7.2038 45.5247 6.2207C44.5416 7.92735 45.3831 10.0902 46.8302 11.0654Z" fill="white"/>
<path d="M46.8372 11.0648C45.1384 12.0557 42.9285 11.5288 41.9375 9.83C43.6363 8.83905 45.8463 9.36598 46.8372 11.0648Z" fill="white"/>
<path d="M54.4739 20.1348C55.4334 21.0785 55.4019 22.5886 54.5054 23.5953C53.8683 24.3109 53.129 24.6963 53.1919 25.4199L53.0425 24.6098C52.9481 24.0121 52.8066 23.2649 53.4672 22.5728C54.3874 21.5897 54.9536 20.6067 54.4739 20.1348Z" fill="white"/>
<path d="M50.0773 21.2891C49.6919 22.4688 50.2975 23.7429 51.3986 24.1912C52.1064 24.4743 53.0816 24.6788 53.1838 25.4259C53.1838 25.4259 53.1838 25.3001 53.1603 25.0327C53.0266 23.6013 52.8929 23.2238 51.9255 22.8384C50.7143 22.3508 50.0851 22.0991 50.0773 21.2891Z" fill="white"/>
<path d="M42.944 7.53369C42.5114 5.67761 40.5924 4.60014 38.7363 5.0327C39.1689 6.88878 41.0958 7.96625 42.944 7.53369Z" fill="white"/>
<path d="M53.1969 25.2597C53.1969 25.2597 53.1812 25.0395 53.1497 24.9137C53.0868 24.6856 52.8823 24.3238 52.8351 24.0249C51.7655 17.3085 48.014 11.2998 42.375 7.35956L42.6031 7.03711C48.3286 11.0403 52.143 17.1433 53.2205 23.9699C53.2677 24.2688 53.362 24.5519 53.2126 24.9923C53.1733 25.1181 53.1969 25.2597 53.1969 25.2597Z" fill="white"/>
<path d="M48.5661 46.2435C49.3523 46.2435 49.9896 45.6062 49.9896 44.82C49.9896 44.0338 49.3523 43.3965 48.5661 43.3965C47.7799 43.3965 47.1426 44.0338 47.1426 44.82C47.1426 45.6062 47.7799 46.2435 48.5661 46.2435Z" fill="white"/>
<path d="M53.0095 40.5496C51.3737 39.9283 49.5412 40.7619 48.9277 42.3978C50.5636 43.0113 52.3882 42.1855 53.0095 40.5496Z" fill="white"/>
<path d="M29.7914 11.1047C29.2173 10.5305 29.2173 9.60251 29.7914 9.02838C29.0128 9.24073 28.2027 8.77671 27.9982 7.99023C27.7859 8.76884 26.9837 9.23286 26.2051 9.02838C26.7792 9.60251 26.7792 10.5305 26.2051 11.1047C26.9837 10.8923 27.7938 11.3563 27.9982 12.1428C28.2106 11.3563 29.0128 10.8923 29.7914 11.1047Z" fill="white"/>
<path d="M47.723 29.0363C47.1489 28.4622 47.1489 27.5341 47.723 26.96C46.9444 27.1724 46.1344 26.7083 45.9299 25.9219C45.7175 26.7005 44.9153 27.1645 44.1367 26.96C44.7108 27.5341 44.7108 28.4622 44.1367 29.0363C44.9153 28.824 45.7254 29.288 45.9299 30.0745C46.1422 29.288 46.9444 28.824 47.723 29.0363Z" fill="white"/>
<path d="M11.8617 29.0363C11.2876 28.4622 11.2876 27.5341 11.8617 26.96C11.0831 27.1724 10.273 26.7083 10.0686 25.9219C9.8562 26.7005 9.054 27.1645 8.27539 26.96C8.84952 27.5341 8.84952 28.4622 8.27539 29.0363C9.054 28.824 9.86407 29.288 10.0686 30.0745C10.2809 29.288 11.0831 28.824 11.8617 29.0363Z" fill="white"/>
<path d="M26.8981 36.9338C26.8981 36.9338 24.0118 36.7214 24.2163 40.8111C24.2163 40.8111 21.1805 41.2279 20.7636 41.7156C20.1266 42.4155 19.5525 41.11 20.2446 40.6931C20.9603 40.2684 22.195 39.8516 22.7141 39.6786C22.195 38.7269 21.0546 37.1383 21.7546 35.5181C22.6276 33.5126 25.4117 34.0789 26.4734 35.1721L26.8981 36.9338Z" fill="white"/>
<path d="M29.0996 36.9572C29.0996 36.9572 31.986 36.7449 31.7815 40.8345C31.7815 40.8345 34.8173 41.2514 35.2341 41.739C35.8712 42.439 36.4453 41.1334 35.7532 40.7166C35.0375 40.2919 33.8027 39.875 33.2837 39.702C33.8027 38.7504 34.9431 37.1617 34.2431 35.5416C33.3702 33.5361 30.586 34.1023 29.5243 35.1955L29.0996 36.9572Z" fill="white"/>
<path d="M25.5526 27.7781C24.6324 26.0321 23.1145 25.5052 23.1145 25.5052C23.1145 25.5052 24.6718 24.2311 23.9639 22.5323C22.5247 19.0954 18.3013 18.1123 16.516 12.9609C15.3599 14.4238 15.9655 15.9574 17.043 17.5461C16.3351 17.0427 15.5958 16.7911 14.8172 16.8933C14.7386 18.073 15.4779 18.6235 15.9104 19.4179C15.2341 19.2527 14.5656 19.0954 13.8813 19.7875C13.96 20.2987 14.5341 21.2897 15.4228 21.6515C14.9037 21.6593 14.3689 21.8402 13.8105 22.5323C14.2982 23.1772 14.833 23.6413 15.4621 23.7986C15.061 24.0109 14.6521 24.1131 14.2903 24.9075C14.6678 25.4266 15.1711 25.7018 15.8003 25.8512C15.5487 26.1816 15.2183 26.3389 15.1869 27.2197C16.0835 27.8017 16.5789 27.6365 17.0115 27.6365C16.8149 28.132 16.752 28.714 16.9643 29.4926C17.5463 29.4926 18.1833 29.5949 18.6002 29.3039C18.38 29.8308 18.6552 30.2948 18.8047 30.7746C19.4574 30.806 20.0158 30.7824 20.354 30.4285C20.236 30.8768 20.5821 31.388 20.9203 31.8599C21.4944 31.7577 22.1314 31.7341 22.391 31.2543C22.4932 31.7498 22.9966 32.0329 23.4842 32.3239C24.0347 32.1824 24.5459 31.9071 24.6953 31.4824C24.8841 31.8992 25.2773 32.2453 25.938 32.497C26.2132 34.18 26.5986 36.1619 26.8031 37.3102C26.8817 39.8662 25.7571 43.3975 24.4909 44.475C24.4909 44.475 25.3953 45.8906 27.9985 45.9142H28.0064H28.0143C30.6175 45.8827 31.5219 44.475 31.5219 44.475C30.2557 43.3975 29.1389 39.8583 29.2097 37.3102C29.4063 36.1619 29.7996 34.18 30.0748 32.497C30.7355 32.2453 31.1287 31.8992 31.3175 31.4824C31.4669 31.9071 31.9781 32.1902 32.5286 32.3239C33.0162 32.0329 33.5196 31.7419 33.6218 31.2543C33.8814 31.7341 34.5184 31.7655 35.0925 31.8599C35.4307 31.3802 35.7768 30.8768 35.6588 30.4285C35.9891 30.7824 36.5554 30.8139 37.2081 30.7746C37.3576 30.2948 37.6328 29.8387 37.4126 29.3039C37.8295 29.5949 38.4665 29.4926 39.0485 29.4926C39.2608 28.714 39.1979 28.1242 39.0013 27.6365C39.4339 27.6287 39.9293 27.7938 40.8259 27.2197C40.7945 26.3389 40.472 26.1816 40.2125 25.8512C40.8417 25.7018 41.345 25.4266 41.7225 24.9075C41.3607 24.1131 40.9518 24.0109 40.5507 23.7986C41.1798 23.6413 41.7146 23.1772 42.2022 22.5323C41.6439 21.8402 41.1169 21.6593 40.59 21.6515C41.4708 21.2897 42.0528 20.2909 42.1315 19.7875C41.4472 19.0954 40.7709 19.2527 40.1024 19.4179C40.5271 18.6235 41.2742 18.0652 41.1956 16.8933C40.417 16.7911 39.6777 17.0427 38.9698 17.5461C40.0473 15.9653 40.645 14.4238 39.4968 12.9609C37.7115 18.1123 33.4803 19.0876 32.0489 22.5323C31.341 24.239 32.8983 25.5052 32.8983 25.5052C32.8983 25.5052 31.3725 26.0321 30.4602 27.7781C30.4602 26.1265 29.6973 23.6884 29.5951 22.8548C29.54 22.4065 29.5793 21.8638 29.658 21.3526C29.9175 19.7246 31.0658 18.7573 31.1051 18.7258C31.0815 18.7415 30.6883 18.946 29.9962 18.7887C29.9254 18.773 29.8546 18.7494 29.7838 18.7179C29.2962 18.5213 28.7929 18.0887 27.8806 18.2146C27.4873 18.2696 27.1727 18.4584 26.9683 18.7179C26.9604 18.7258 26.9604 18.7258 26.9525 18.7337C26.6143 18.5056 26.2604 18.4427 25.9144 18.5056C25.3403 18.6078 25.0571 19.0404 25.0571 19.4336C25.0571 19.4887 25.0571 19.4887 25.0571 19.4887C25.9065 19.41 26.457 19.5909 26.8503 20.0628C26.3941 19.8976 25.8908 19.8033 25.1515 19.9684C24.5538 20.1021 23.9718 19.8033 23.9718 19.8033C23.9718 19.8033 24.1684 20.5268 25.0571 20.4796C26.0874 20.4324 26.6065 20.6841 26.8975 20.9987C26.3076 20.865 25.6706 20.7628 25.4189 21.2346C26.0166 21.2582 27.1098 21.9739 26.9918 22.8312C26.866 23.6884 25.5526 26.3231 25.5526 27.7781Z" fill="white"/>
<path d="M17.7882 41.1641C16.9152 41.5573 16.75 42.1236 17.0331 42.737C17.2927 41.9584 18.0556 41.6989 18.5668 41.6517C17.6938 42.1865 17.6938 42.8235 17.9926 43.3269C18.8656 41.9505 20.6745 41.6517 21.2408 42.3674L21.2329 42.3752C21.3823 42.0921 21.4059 41.7932 21.2958 41.5337C20.8947 40.6371 19.3218 40.472 17.7882 41.1641Z" fill="white"/>
<path d="M38.2071 41.1641C39.0801 41.5573 39.2452 42.1236 38.9621 42.737C38.7026 41.9584 37.9397 41.6989 37.4285 41.6517C38.3015 42.1865 38.3015 42.8235 38.0026 43.3269C37.1296 41.9505 35.3207 41.6517 34.7545 42.3674L34.7623 42.3752C34.6129 42.0921 34.5893 41.7932 34.6994 41.5337C35.1005 40.6371 36.6735 40.472 38.2071 41.1641Z" fill="white"/>
<path fill-rule="evenodd" clip-rule="evenodd" d="M29.4001 17.224C29.6517 16.9566 30.2258 16.7128 30.4303 16.6577C30.9415 16.524 31.5314 16.6892 31.6494 17.1925C31.7595 17.6959 31.3584 18.1363 30.8157 18.2228C30.3202 18.3014 29.7776 17.9554 29.2349 17.7824C28.6844 17.6093 28.0473 17.5857 27.6855 17.2397C27.2923 16.8622 27.2137 16.2645 27.5912 15.9184C27.9687 15.5724 28.5507 15.7769 28.8888 16.178C29.0225 16.3274 29.345 16.8622 29.4001 17.224Z" fill="white"/>
<path d="M29.671 17.6798L28.9238 17.4438L29.8125 15.0215L30.3316 15.1866L29.671 17.6798Z" fill="white"/>
<path d="M30.0308 13.9844L30.7386 14.2125L30.3296 15.1877L29.8105 15.0225L30.0308 13.9844Z" fill="white"/>
<path d="M29.0469 15.0782L29.2356 14.4805L30.1401 14.8658L30.0142 15.2827L29.0469 15.0782Z" fill="white"/>
<path d="M31.1088 15.0697L30.9201 15.6674L30.0156 15.2821L30.1415 14.8652L31.1088 15.0697Z" fill="white"/>
<path d="M43.0324 33.3457C43.5593 35.8388 41.9706 38.2848 39.4775 38.8117C38.9506 36.3186 40.5471 33.8726 43.0324 33.3457Z" fill="white"/>
<path d="M41.785 39.7005C42.8389 39.1657 43.6017 38.2927 44.0107 37.2782C42.949 37.0108 41.7929 37.1051 40.739 37.6399C40.2671 37.8838 39.8503 38.1905 39.4964 38.5523C39.6851 38.0882 39.7952 37.577 39.8267 37.0501C39.8896 35.8704 39.5042 34.7772 38.8279 33.9199C38.065 34.7064 37.5774 35.7603 37.5223 36.9321C37.4594 38.1118 37.8448 39.205 38.5133 40.0623C39.575 40.3297 40.7311 40.2353 41.785 39.7005Z" fill="white"/>
<path d="M17.3981 40.0311C16.2105 38.6469 14.1342 38.4896 12.75 39.6693C13.9376 41.0535 16.0139 41.2187 17.3981 40.0311Z" fill="white"/>
<path d="M17.396 40.0302C16.7589 38.3235 17.6162 36.4281 19.3228 35.7832C19.9599 37.4899 19.1026 39.3931 17.396 40.0302Z" fill="white"/>
<path d="M11.9883 36.7977C14.0017 37.3797 15.8735 38.4965 17.3992 40.0301C16.7779 37.9617 16.6914 35.7832 17.1397 33.7305C15.7398 35.2169 13.9623 36.2786 11.9883 36.7977Z" fill="white"/>
<path d="M15.0345 36.0827C15.7345 35.658 15.9468 34.7457 15.5221 34.0457C15.0974 33.3457 14.1851 33.1334 13.4851 33.5581C12.7852 33.9828 12.5728 34.8951 12.9975 35.595C13.4222 36.295 14.3345 36.5152 15.0345 36.0827Z" fill="white"/>
<path d="M34.471 5.70193C34.9115 5.70193 35.2261 4.78963 35.2261 4.27055C35.2261 3.97169 35.1159 3.73575 34.8957 3.73575C34.4553 3.73575 34.1565 4.6402 34.1565 5.18286C34.1565 5.51318 34.2744 5.70193 34.471 5.70193ZM34.8643 6.37044C33.8497 6.37044 32.7565 5.71766 32.7565 4.33347C32.7565 2.81558 34.1329 1.24263 35.9889 1.24263C36.3114 1.24263 36.7361 1.28982 37.1686 1.39992L37.0114 1.96618C36.8305 1.93473 36.6574 1.91113 36.4923 1.91113C35.5642 1.91113 34.7542 2.42234 34.3452 3.53913L34.3688 3.55486C34.6362 3.29533 34.9351 3.20095 35.2339 3.20095C35.9889 3.20095 36.6889 3.8144 36.6889 4.72671C36.681 5.55251 35.9496 6.37044 34.8643 6.37044ZM28.659 5.21432C28.6905 4.98624 28.7062 4.7739 28.7219 4.53795C28.9815 4.57728 29.2489 4.60087 29.5163 4.62447L29.8387 0.841527C29.5792 0.888715 29.2646 0.91231 29.005 0.943769C29.0365 0.74715 29.068 0.534802 29.0758 0.330319C29.5792 0.306725 30.7117 0.14943 31.333 0.031459L31.4353 0.0471884L31.0341 4.7503C31.2937 4.7739 31.5611 4.79749 31.8206 4.80535C31.797 5.0413 31.7656 5.26937 31.7656 5.50532C30.7353 5.32443 29.6342 5.24578 28.659 5.21432ZM25.7805 4.82895C26.0794 4.82895 26.2681 4.55368 26.2681 4.16045C26.2681 3.59419 25.8827 3.39757 25.3558 3.17735C25.2772 3.43689 25.2536 3.64137 25.2536 3.83799C25.2536 4.31774 25.3637 4.82895 25.7805 4.82895ZM25.7412 2.11561C25.8356 1.96618 25.8356 1.82462 25.8356 1.63587C25.8356 1.2269 25.7097 0.605585 25.3637 0.605585C25.1671 0.605585 25.0412 0.786474 25.0412 1.10106C25.0334 1.57295 25.3086 1.90327 25.7412 2.11561ZM25.6547 5.52105C25.5446 5.52891 25.4738 5.53678 25.3243 5.53678C24.412 5.53678 23.7435 5.05703 23.7435 4.3492C23.7435 3.64137 24.4042 3.21668 25.0098 3.02792C24.3649 2.72906 23.7278 2.23359 23.7278 1.52576C23.7278 0.676368 24.6401 0 25.6625 0C26.5906 0 27.1411 0.566261 27.1411 1.14039C27.1411 1.73024 26.567 2.1628 26.1266 2.30437C26.9759 2.63469 27.7781 2.90209 27.7781 3.76721C27.7781 4.71884 26.7636 5.42667 25.6547 5.52105ZM20.1965 6.60638C20.1415 6.3783 20.0707 6.15809 19.9999 5.93788C20.2516 5.87496 20.5111 5.79631 20.7628 5.71766L19.6775 2.17853C19.4494 2.31223 19.2213 2.42234 19.0011 2.54818C18.9539 2.35156 18.8989 2.14707 18.8359 1.95832C19.3 1.74597 20.2359 1.21117 20.7707 0.865121L20.865 0.841527L22.2256 5.2851C22.4773 5.21432 22.8548 5.09635 22.9807 5.04916C23.0357 5.27724 23.0829 5.4424 23.1851 5.71766C22.1863 5.94574 21.1324 6.22887 20.1965 6.60638Z" fill="white"/>
<path d="M32.76 50.7106C32.6341 50.7106 32.4454 50.7342 32.3274 50.7342L32.2487 50.2937C32.9802 50.1836 34.152 49.869 34.6947 49.7039C34.7104 49.7747 34.7655 49.9791 34.8126 50.0971C34.6396 50.2151 34.5531 50.3016 34.3644 50.4274L36.7474 53.8565L36.7788 53.8407L36.6294 50.278L36.2204 49.7668C36.0946 49.7668 35.9058 49.7904 35.78 49.7904C35.7643 49.6567 35.7328 49.4994 35.7014 49.3893C36.5114 49.0983 37.2429 48.7837 38.0372 48.3905C38.0608 48.5242 38.108 48.6893 38.1552 48.8073C37.99 48.9253 37.8956 49.0039 37.7147 49.1376L40.0348 52.3386L40.0584 52.3307L39.7674 48.1152C39.5551 48.1073 39.2877 48.1939 39.1461 48.2489C39.1225 48.1388 39.0989 47.9736 39.0675 47.8557C39.5708 47.5961 40.4831 47.0141 40.6011 46.9434C40.6168 47.0377 40.6719 47.2029 40.7191 47.3287C40.5775 47.4467 40.4831 47.5332 40.373 47.7141L40.664 52.8891C40.1921 53.1644 39.7202 53.3924 39.2248 53.5576L37.29 51.0881L37.3844 54.3991C36.944 54.6036 36.3227 54.753 35.8272 54.9261L32.76 50.7106ZM31.4937 55.1856C30.9668 55.7519 30.2118 55.9957 29.4174 55.9957C27.7894 55.9957 26.7513 54.9261 26.7513 53.2352C26.7513 51.2532 28.2771 50.4668 30.4713 50.4668C30.7938 50.4668 31.1398 50.4825 31.3994 50.5375V52.142L30.9825 52.1813C30.8016 51.3555 30.3533 51.033 29.7399 51.033C28.7725 51.033 28.4343 51.7959 28.4343 52.8576C28.4343 54.0374 28.8354 55.3822 29.732 55.3665C30.2668 55.3586 30.5185 54.8946 30.5185 53.9744C30.5185 53.8486 30.5106 53.7149 30.5028 53.5655C30.2826 53.534 29.9758 53.5026 29.8343 53.479C29.85 53.3295 29.8579 53.1408 29.8579 52.9913L31.9263 52.8183L32.1622 55.7047C32.0207 55.6968 31.8948 55.7125 31.7611 55.744L31.4937 55.1856ZM23.0706 55.5002C21.5291 55.5002 20.255 54.5328 20.255 52.834C20.255 51.3555 21.2224 50.0499 22.9605 50.0499C23.7706 50.0499 24.9503 50.3488 25.6109 50.6634L25.1469 52.2127L24.7458 52.1262C24.8166 51.3162 24.3525 50.6319 23.5582 50.6319C22.4729 50.6319 21.9145 52.024 21.9145 53.4868C21.9145 54.3283 22.2369 54.8631 22.8111 54.8631C23.3616 54.8631 23.6762 54.3755 23.8964 53.3295C23.6919 53.2351 23.4009 53.1172 23.2751 53.0621C23.3301 52.9206 23.393 52.7475 23.4402 52.5981L25.4693 52.9992L24.9031 55.8384C24.7772 55.7912 24.6357 55.7676 24.502 55.7597L24.4076 55.162C23.9829 55.4058 23.5503 55.5002 23.0706 55.5002ZM17.2428 53.5419C16.2361 53.5419 14.6711 52.9206 14.207 52.079C14.4744 51.6229 14.7182 51.1589 14.9385 50.6791C15.08 50.7499 15.2216 50.8128 15.3631 50.8757C15.2766 51.1274 15.2373 51.3476 15.2373 51.5285C15.2373 52.2285 15.8272 52.8498 16.417 52.8498C16.7945 52.8498 16.9518 52.606 16.9518 52.2914C16.9518 51.497 15.8114 50.3173 15.8114 49.4129C15.8114 48.6815 16.4092 48.1545 17.2743 48.1545C18.1551 48.1545 19.5315 48.7208 19.9797 49.5938C19.7281 49.9241 19.4843 50.2623 19.2641 50.6083C19.1461 50.5375 19.0203 50.4825 18.8866 50.4353C18.9573 50.2151 18.9967 50.0263 18.9967 49.869C18.9967 49.3106 18.5012 48.8702 18.0214 48.8702C17.6597 48.8702 17.4945 49.1219 17.4945 49.405C17.4945 50.0971 18.745 51.497 18.745 52.4094C18.745 53.1172 18.0765 53.5419 17.2428 53.5419Z" fill="white"/>
</svg>
